<?xml version="1.0" encoding="utf-8"?>
<!-- Generator: Adobe Illustrator 25.0.1, SVG Export Plug-In . SVG Version: 6.00 Build 0)  -->
<svg version="1.1" id="Layer_1" xmlns="http://www.w3.org/2000/svg" xmlns:xlink="http://www.w3.org/1999/xlink" x="0px" y="0px"
	 viewBox="0 0 1201 328" style="enable-background:new 0 0 1201 328;" xml:space="preserve">
<style type="text/css">
	.st0{fill:#262223;}
	.st1{fill:#04532B;}
	.st2{fill:#0F8449;}
	.st3{fill:#BEE2C3;}
	.st4{fill:#73A47C;}
	.st5{fill:#FEFEFE;}
</style>
<g>
	<path class="st0" d="M586.7,128.5c21.5,0,43-0.1,64.5,0.1c3.1,0,4.2-0.6,4.2-4c-0.2-25-0.3-50,0-75c0.2-15.1-7.3-27.7-23.7-28
		c-1.2,0-2.5-0.1-2.2-1.9c0.3-1.8,1.8-1.2,2.8-1.2c5.8-0.1,11.7,0,17.5,0c17.3,0,34.7,0,52,0.1c1.2,0,3.4-1.2,3.7,1.2
		c0.3,2.9-2.3,1.7-3.6,1.9c-13.6,1.7-21.5,10.2-21.6,24.2c-0.2,61.6-0.2,123.3,0,184.9c0,14.4,7.5,22,21.8,23.7
		c1.2,0.1,3.5-0.9,3.4,1.6c0,2.6-2.2,1.5-3.4,1.5c-23,0.1-46,0.1-69,0c-1.2,0-3.4,0.9-3.5-1.4c-0.1-2.4,2.1-1.5,3.4-1.7
		c14.9-1.9,22.3-9.8,22.3-24.9c0.2-30,0-60,0.2-89.9c0-3.4-1.1-4-4.2-4c-42.8,0.1-85.6,0.1-128.4,0c-3.2,0-4.2,0.7-4.2,4.1
		c0.1,29.1,0,58.3,0.1,87.5c0.1,17,6.8,24.6,23.4,27.4c1.1,0.2,2.5-0.2,2.5,1.6c0,1.9-1.5,1.5-2.5,1.5c-23.7,0-47.3,0-71,0
		c-1,0-2.5,0.5-2.5-1.4c0-1.8,1.4-1.5,2.5-1.6c14.2-0.8,23.1-9.6,23.1-27c0-59.6,0-119.3,0-178.9c0-3.1-0.3-6.3-0.9-9.4
		c-2.1-10.5-8.9-16-21.4-17.5c-1.3-0.2-3.5,0.7-3.2-1.9c0.2-2,2.1-1.2,3.2-1.2c23.2-0.1,46.3-0.1,69.5,0c1.1,0,3-0.9,3.2,1.2
		c0.3,2.6-1.9,1.7-3.2,1.8c-14,1.7-21.5,8.9-22.2,23c-0.7,14.1-0.4,28.3-0.4,42.5c0,11.7,0.2,23.3-0.1,35c-0.2,5,0.9,6.7,6.3,6.6
		C545.4,128.3,566.1,128.5,586.7,128.5z"/>
	<path class="st0" d="M829.3,138.9c21.2,11.4,33.1,29.7,44.3,48.8c8.8,14.9,17.2,30,27,44.3c7.3,10.6,15.5,20.1,29.1,22.5
		c1.2,0.2,1.8,0.8,1.7,2c-0.1,1.2-1.1,1-1.9,1c-13.3,0-26.7,0-40,0c-2.1,0-2.7-1.8-3.7-3c-6.9-8.8-13.1-18-18.9-27.5
		c-9.3-15.1-18.5-30.4-27.7-45.6c-6.3-10.3-13.7-19.6-23-27.4c-10.2-8.4-21.9-12.3-35-12.5c-2.8,0-3.7,0.7-3.7,3.6
		c0.1,27.6,0,55.3,0.1,83c0,16.9,8.1,25.6,23.3,26.5c1.2,0.1,2.5,0.1,2.4,1.7c-0.1,1.9-1.7,1.1-2.7,1.1c-23.5,0-47,0-70.5,0
		c-1,0-2.6,0.6-2.7-1.2c0-1.6,1.4-1.6,2.5-1.7c15.5-1.1,23-10.9,23-27.5c-0.1-59.3,0-118.6-0.1-177.9c0-9.6-1.2-18.7-10.8-24.2
		c-3.7-2.1-7.7-3.1-11.9-3.3c-1.2-0.1-3,0.4-2.9-1.7c0.1-2.2,1.9-1.4,3-1.4c29,0,58-0.7,87,0.3c25,0.9,45.7,11.1,56.5,35.1
		C889.3,87.9,875.5,129.9,829.3,138.9z M777.5,80.4c0,17,0,34,0,51c0,2.1-0.6,4.3,3,4.2c10.8-0.1,21.7,0.1,32.3-2.1
		c19.5-4.1,33.4-14.3,37.9-34.8c1.5-6.9,2-13.9,1.3-20.9c-1.5-15.9-6.7-30.1-19.5-40.7c-14.9-12.3-32.3-13.6-50.5-11.9
		c-3.7,0.3-4.7,1.6-4.6,5.2C777.7,47.1,777.5,63.7,777.5,80.4z"/>
	<path class="st0" d="M995.2,136.8c0,31.9-0.2,62.5,0.1,93.2c0.1,15,7.6,22.7,22.2,24.5c1.3,0.2,3.6-0.5,3.3,1.9
		c-0.2,1.8-2.2,1-3.3,1c-23,0.1-46,0.1-69,0c-1.1,0-3,0.9-3.2-1.1c-0.2-2.4,2-1.6,3.3-1.8c14.2-1.9,21.3-9.4,21.8-23.8
		c0.3-9.5,0.1-19,0.1-28.5c0-50.1,0-100.3,0-150.4c0-2.2,0-4.3-0.1-6.5c-0.7-14.9-6.9-21.8-21.7-23.7c-1.3-0.2-3.5,0.8-3.5-1.5
		c0.1-2.9,2.6-1.4,3.8-1.4c22.7-0.1,45.3-0.1,68,0c1.3,0,3.4-1,3.7,1.1c0.4,2.4-1.9,1.7-3.2,1.9c-14.8,1.9-22.2,9.7-22.3,25
		c-0.2,29.1-0.1,58.3-0.1,87.4c1.6,0.8,2.1-0.6,2.8-1.4c30.3-30.4,60.7-60.9,91-91.3c1.3-1.3,2.5-2.7,3.6-4.2
		c4.8-7,2.7-12.5-5.5-14.3c-2.4-0.5-4.9-0.8-7.4-1.2c-1.2-0.2-2.5,0-2.4-1.8c0.1-1.9,1.6-1.3,2.6-1.3c12-0.1,24,0,36,0
		c8.2,0,16.3,0,24.5,0c1.1,0,3-0.8,2.8,1.6c-0.1,1.8-1.6,1.4-2.7,1.4c-14.8,0.2-26.5,6.5-36.9,17c-27.9,28.1-56.4,55.7-84.7,83.5
		c-1.9,1.8-1.8,2.9-0.1,4.8c32.5,36.6,65,73.2,97.3,110c9.2,10.4,20.5,16.2,34.2,17.6c1.4,0.1,3.6-0.3,3.3,1.9
		c-0.2,2.1-2.4,1.1-3.7,1.1c-14.8,0.1-29.7-0.1-44.5,0.1c-3,0-4.5-1.4-6.2-3.3c-33.1-37.5-66.1-74.9-99.2-112.4
		C998.7,140.5,997.3,139.1,995.2,136.8z"/>
	<path class="st0" d="M333.4,159.5c-12.5,0-25,0-37.5,0c-1.9,0-3.9-0.6-4.7,2.3c-6.9,23.1-15.6,45.6-21.3,69c-0.5,1.9-0.6,4-0.7,5.9
		c-0.3,11.8,3.7,16.2,15.5,17.6c1.2,0.1,3.5-1,3.5,1.5c0,2.9-2.5,1.6-3.8,1.6c-16.2,0.1-32.3,0.1-48.5,0c-1.2,0-3.3,1.1-3.7-1.1
		c-0.5-2.8,2.2-2.1,3.5-2.3c8.8-1.7,15-6.7,19.7-14.1c3.9-6.2,6.5-13,8.8-20c21.9-66.7,43.9-133.5,65.7-200.2
		c1.1-3.3,2.5-4.4,5.9-4.2c4.3,0.4,9.7-1.3,12.7,0.7c2.9,2.1,3.3,7.6,4.8,11.7c23,65.5,46,131,68.9,196.5c1.9,5.3,4.2,10.5,7,15.4
		c4.4,7.8,10.3,13.4,19.8,14.3c1.2,0.1,3.5-0.5,3.4,1.8c-0.1,2.9-2.5,1.5-3.8,1.5c-23.3,0.1-46.6,0.1-70,0c-1.4,0-3.9,1.2-4-1.4
		c-0.1-2.7,2.5-1.5,3.9-1.6c4.1-0.4,8.3-0.6,12.3-1.7c5.7-1.6,7.9-4.3,8.5-10.2c0.5-5.4-0.6-10.6-2.3-15.7
		c-7-21.3-14.2-42.5-21.2-63.8c-0.9-2.7-2.1-3.5-4.9-3.5C358.4,159.6,345.9,159.5,333.4,159.5z M331.5,37.7
		C319,76.2,307,113.6,294.8,151.2c25.4,0,50.3,0,75.7,0C357.6,113.6,344.7,76.2,331.5,37.7z"/>
	<path class="st1" d="M115.4,213.4c3.5,8.7,8.1,17,10.1,27.6c4-13.3,2.9-25.5,1.2-37.6c-0.9-6.3-0.2-12.9-4.3-18.6
		c-2.2-3-5-5.3-7.2-8.1c-0.4-0.3-0.8-0.7-1.2-1l0.1,0.1c-0.1-0.6-0.5-1-1.2-0.9l0.2-0.2l-0.2,0.2c0-1.2-0.8-1.4-1.8-1.4
		c-0.7-0.6-1.3-1.2-2-1.8c0.1-1.6-0.6-2.9-1.5-4.1c-5.6-7.5-8.7-16.2-11-25.1c-0.4-1.4,0.3-3.6-2.1-3.9c0-0.7,0-1.3,0-2
		c1-1.1,0.9-2.6,0.7-3.8c-1.2-5.2-0.5-10.4-0.1-15.7c0.4-4.6,2.1-9,2-13.6l0-0.1c0.4,0.1,0.8,0.1,1.2,0.2c-0.1,1.8-0.2,3.6-0.6,5.4
		c-4,20.5-0.2,39.5,12.2,56.4c2.9,4,5.1,9.6,11.3,10.3c0.1,0.4,0.3,0.9,0.4,1.3c0.1-0.1,0.4-0.2,0.4-0.2c-0.2-0.4-0.5-0.7-0.7-1.1
		c-1.6-5.8-3.4-11.6-6.1-17c-0.1-0.2-0.1-0.5-0.1-0.7c0-1,0.3-2,0-3c-3.4-12.3-3-24.9-2.8-37.5c0.1-4.3,0.8-8.6,2.7-12.6
		c-0.4,11.4-1.3,22.8-0.8,34.3c0.1,3.8,0.2,7.6,3.2,10.6c0.1,0.2,0.1,0.4,0,0.6c-0.2,1.3-0.5,2.5,0.9,3.4c0.3,4.5,2.3,8.1,6.2,12.3
		c-1.9-8.6-5.1-15.6-5.5-23.2c-0.5-25.4,1.9-50.7,1.6-76.1c1.6,4,2.5,8.2,2.6,12.4c0.1,8.1-0.3,16.2-0.8,24.4
		c-1.1,15.8,0.7,31.5,4,47c1.3,6.2,3.1,12.4,4.9,18.6c1.8-5.6,0.1-10.9-0.6-16.2c-0.5-3.4-0.2-7.2-2.5-10.3
		c-0.3-0.2-0.6-0.4-0.9-0.5c0,0,0,0.1,0,0.1c0.1-0.5,0.2-1,0.3-1.5c0.9-2.4,1.4-4.8-0.4-7.1c-0.2-1.6-0.4-3.2-0.6-4.9
		c0.1-0.1,0.3-0.3,0.3-0.4c-0.1-0.3-0.2-0.5-0.3-0.8c0-0.9,0-1.9,0-2.8c2.9-0.6,0.9-3.7,2.7-5.4c-0.9,18.6,5.9,36.1,3.7,55
		c1.8-1.8,2-3.2,2.3-4.6c2.2-8.7,3.7-17.4,5.1-26.2c1.8-10.9,1.2-21.4-2.6-31.8c-1.2-3.2-2.8-6.4-2.6-10c0.5-0.2,1-0.5,1.5-0.7
		c0.2,0.1,0.2,0.3,0.2,0.5c-0.6,1-0.7,1.8,0.9,1.8l0,0.2c-0.5,1-0.6,1.8,0.9,2l0,0c-0.2,1.2-1.1,2.7,1.2,2.7l0,0.2
		c-0.6,1-0.7,1.8,0.8,2l0-0.1c-0.5,1.3-0.8,2.5,0.8,3.4c5.6,13.7,3.4,27.3-0.2,41c-1.3,0.9-1.1,2.1-0.8,3.4c0.1,0.2,0.1,0.4-0.1,0.6
		c-2.9,6.5-4.2,13.5-5,20.5c-0.2,0.8-0.3,1.7-0.8,2.3c-5.7,6.7-5.5,14.4-3.4,22c4.5,16.6,1.9,32.9-1.4,49.3
		c-0.3,1.3-0.4,2.6-0.5,3.9c-0.1,1.8,0,3.6,0.4,5.7c4-8.6,8.7-16.9,13.9-24.8c0.1-0.1,0.3-0.2,0.3-0.3c-0.1-0.2-0.2-0.5-0.4-0.7
		c-0.1-1-0.1-2-0.2-3c1.2-1.3,1.5-2.9,1.9-4.5c2-8.7,3.7-17.5,6.8-25.9c1.3-3.6,4.2-6.5,4.1-10.6l0,0c0.3-0.4,0.6-0.7,1-1.1l0,0
		c0.9-0.3,1.1-1.1,1.1-1.9l0,0c0.3-0.4,0.6-0.8,0.9-1.2c3.7-4.6,6-10.3,10.9-13.9c2.1,1.7-0.1,2.6-0.9,3.5
		c-13.4,16.5-18.7,36.2-21.4,57c8.3-14.1,21.3-23,34.3-31.8c19.9-13.6,33.8-32.1,43.6-53.9c1.2-2.7,1.4-5.9,4.1-9.3
		c-2.4,17.7-10.3,31.4-20.6,44c-12.1,14.6-25.7,27.8-39.2,41.2c-1.7,1.7-3.4,3.5-4.1,5.9c1.6,0.8,2.7-0.3,3.8-0.9
		c13.8-7.5,26.6-16.3,38.2-26.9c2.2-2,3.4-2.2,3.3,1.3c-0.9,1-1.8,2-2.8,3c-3.8,0.9-6,3.4-7.1,7l0,0c-1.2-0.2-2.4-0.2-3.3,0.7
		c-10.4,9.9-23.4,15.3-35.8,21.8c-2.6,1.3-5.3,2.7-7,5.3c-3.5,0.6-6.1,5.6-10.5,2.3c0,0-1,1.1-1.4,1.7c-6.9,12-12.4,24.5-16.1,37.9
		c-2.7,9.5-6,18.6-12.1,26.6c-1.3,1.7-2.7,4.5-5.5,2.5c-2.6-1.8-2-4.5-0.3-6.6c7.9-9.1,10.6-20.1,11.4-31.8
		c0.9-13.6,3.6-27.1,0.2-41c-2.6-10.3-8.1-16.7-16.7-21.5c-1-0.5-2-1.1-2.9-1.7c-0.3-1.2-1.1-1.3-2.1-1.1l0,0c0.3-1.6,0.6-3.3,0.9-5
		c2.7,0.6,3.5,3.8,6.3,3.8c0.1,0.1,0.1,0.2,0.2,0.3c0.1,0.1,0.2,0,0.3,0.1c-0.1-0.1-0.3-0.3-0.4-0.4c-2.8-5.3-5.3-11-11.1-13.9l0,0
		c0.1-3.6-1.8-5.4-5.2-6c-0.3-0.3-0.6-0.6-0.8-0.9c0.6-3.2-1.9-4.8-3.8-6.4c-3.7-3-5.6-8.3-11.2-8.8c-0.7-0.6-1.3-1.2-1.9-1.8
		c-0.2-3.1-2.1-4.2-5-4.2c-0.3-0.3-0.7-0.6-1-0.8c-0.1-2.7-1.8-3.2-4-3.2c-0.3-0.3-0.7-0.5-1-0.8c-0.2-2.5-2.1-2.9-4-3.1l0,0
		c0-1.4-0.7-2.1-2.1-1.8v0c-0.5-2.1-2.1-2.3-3.8-2.2l0,0c-0.1-2.6-1.8-3-3.9-3.2c-0.2-1.6-1.3-2.7-2.6-3.5c-3.2-1.9-5.7-4.6-7.9-7.4
		c-3.2-4-7.1-7.8-8.5-14.5c2.2,2.3,3.4,3.9,4.9,5.1c3.3,2.8,5.4,7.1,10.1,8.3l0,0c-0.2,1.8,0.9,2.9,2.1,3.7
		c8.1,5.7,15.4,12.6,24.7,16.5c0.3,0.3,0.7,0.7,1,1c0.3,0.3,0.7,0.7,1,1c1.5,1.6,2.8,3.3,4.5,4.6c9.8,8,18.6,17,26,27.2
		C107.2,199.8,111.1,206.7,115.4,213.4z"/>
	<path class="st2" d="M211.2,204.5c0.1-3.4-1.1-3.3-3.3-1.3c-11.6,10.5-24.4,19.4-38.2,26.9c-1.1,0.6-2.2,1.7-3.8,0.9
		c0.7-2.5,2.4-4.2,4.1-5.9c13.4-13.4,27.1-26.6,39.2-41.2c10.4-12.5,18.3-26.3,20.6-44c-2.7,3.4-2.9,6.6-4.1,9.3
		c-9.9,21.8-23.7,40.3-43.6,53.9c-13,8.9-26,17.8-34.3,31.8c2.7-20.8,7.9-40.5,21.4-57c0.8-1,3-1.8,0.9-3.5c2.5-4.6,6.7-7.6,10-11.4
		c3.2-3.7,7.6-6.2,10.1-10.5c1.3-0.7,2.7-1.4,4-2.1c-1.4,5.2-6,8.2-8.9,12.3c-4.6,6.3-10,12.1-13.3,19.5c3.1-1.6,6.4-2.5,8.6-5.4
		c4.2-1,6.8-4.7,10.5-6.5c0.1,0.1,0.3,0.3,0.4,0.4c-0.4,1.2-0.7,2.6-1.4,3.7c-5.5,8.5-10.8,17.1-17.3,24.9c-1.1,1.4-2.8,2.6-2.2,5.3
		c2.9-1.7,5.5-3.1,7.5-5.3c25.2-16.3,40.8-39.6,50.8-68.8c-8.4,3.3-16.1,4.8-22.8,8.8c-0.9,0-1.6,0.2-1.9,1.1l0,0
		c-0.9,0-1.7,0-1.9,1.1l0,0c-1.5-0.2-2.6,0.4-3,2v0c-1.3-0.2-2.1,0.3-2.3,1.6l-0.1,0c-1.4,0-2.6,0.3-2.9,2c-0.4,0.3-0.8,0.6-1.2,0.9
		c-1.3,0.1-2.5,0.5-2.9,2l-0.1,0.1c-10,6.3-17.4,15.1-24.3,24.4c-4.1,5.5-8.4,11-10.3,17.8c-0.2,0.1-0.4,0.3-0.5,0.4
		c0.1,0,0.2,0,0.3-0.1c0.1-0.1,0.1-0.3,0.2-0.4c0.3,0,0.7,0,1,0c0.1,4.1-2.8,7-4.1,10.6c-3.1,8.5-4.8,17.2-6.8,25.9
		c-0.4,1.6-0.7,3.2-1.9,4.5c-2-26.3,7.3-48.6,24.4-68c15.3-17.4,34.4-29.1,55.6-37.9c3.8-1.6,7.7-3.1,10.7-6.1
		c0.1,1.1,0.1,2.2,0.2,3.5c2.2-0.7,2.6-2.7,3.8-4c1.7-1.9,0.9-5.2,3.6-6.6c10.1,53.3-9.8,89.2-51.6,117.1c-5.1,3.5-10.9,5.6-17,6.9
		c-6,1.4-12,2.6-18,3.9c1.7-2.6,4.4-4,7-5.3c12.5-6.4,25.5-11.9,35.8-21.8c0.9-0.9,2.1-0.9,3.3-0.7c-7.9,9-18.3,14.5-29.5,21
		c1.9-0.2,2.6-0.2,3.2-0.4c1.7-0.6,3.4-1.2,5.1-2c15.8-7.6,28.1-19.4,39.8-32c2.1-2.2,2-6.1,4.5-8.1c6.2-4.8,8.5-11.6,10.9-18.5
		c6.3-15.6,8.7-31.7,5.3-49.4c-0.6,1.4-1,1.7-1,2.2c-2.6,17.1-9.1,32.6-18.6,47c-0.6,0.9-1.7,1.8-0.9,3.1l0,0c-2,0.1-2.7,1.2-2,3.1
		l0.1-0.1c-0.4-0.5-0.9-0.5-1.3-0.1c-9.7,11.9-19.9,23.3-30.5,34.4c2.5,0.2,3.6-1.6,5-2.9c15.1-14.7,30-29.7,41.8-47.3l0.1,0.1
		C230.3,180.2,221.8,193,211.2,204.5z M167.2,206.4c0.2-0.1,0.4-0.3,0.6-0.4c-0.1,0-0.3,0-0.3,0
		C167.4,206.2,167.3,206.3,167.2,206.4c-0.1,0.1-0.2,0.1-0.3,0.2c-0.1,0,0,0.2-0.1,0.3C167,206.8,167.1,206.6,167.2,206.4z
		 M182.2,218.4c0.4-0.1,0.9-0.2,1.3-0.3c-0.1-0.2-0.2-0.4-0.3-0.5C182.9,217.9,182.6,218.2,182.2,218.4c-0.1,0.1-0.3,0.1-0.4,0.2
		c-0.1,0,0,0.2-0.1,0.3C182,218.8,182.1,218.6,182.2,218.4z M234,127.5c-0.1-0.1-0.1-0.3-0.2-0.4c-0.1,0.1-0.2,0.2-0.3,0.4
		c0,0.1,0.1,0.3,0.2,0.4C233.8,127.7,233.9,127.6,234,127.5z M233,130.7c0-0.1-0.1-0.3-0.1-0.4c-0.1,0-0.4,0.1-0.4,0.1
		c0,0.1,0.1,0.3,0.1,0.4C232.7,130.7,232.9,130.7,233,130.7z"/>
	<path class="st2" d="M90.1,188.5c3.4,0.6,5.3,2.5,5.2,6c-0.5,0.1-1.4-0.3-1.4,0.7c0,0.2,0.4,0.6,0.6,0.6c1.1,0,0.6-0.9,0.8-1.4
		c5.8,3,8.2,8.6,11.1,13.9l0,0c-2.8,0.1-3.6-3.2-6.3-3.8c-0.3,1.7-0.6,3.3-0.9,5c-18.1-6.2-36-12.8-51.8-24.1
		c-16.1-11.5-26.9-26.5-31.2-46c-3.4-15.5-6-31.3-11-46.4c1.1-0.9,1.4-0.1,1.7,0.4c6.8,11.5,16.8,19.2,28.7,24.6
		c15.4,7,30,15.2,41.7,27.7c16.5,17.5,27.3,38.4,36.7,60.2c1,2.2,1.8,4.7,1.4,7.3c-4.2-6.7-8.2-13.6-12.8-20
		c-7.4-10.2-16.1-19.3-26-27.2c-1.7-1.3-3-3.1-4.5-4.6l0.2-0.3c0.1-0.1,0.3-0.2,0.4-0.3c-0.2-0.2-0.4-0.4-0.6-0.6l0.1,0.1
		c-0.4-0.4-0.7-0.7-1.1-1.1l0.1,0.1c0-0.5,0.1-1.1-0.6-1.3c-0.1,0.4-0.2,0.8-0.3,1.1l-0.3,0.3c-9.3-3.9-16.5-10.9-24.6-16.5
		c-1.2-0.8-2.3-2-2.1-3.7c7.8,3.4,13.9,9.7,21.5,13.4c-6.1-6.7-12.8-12.6-20.5-17.4c-1.5-1.4-3.5-2.4-4-5.2
		c5.9,0.4,10.2,3.6,14.7,6.4c7.8,6.9,15.2,14.2,22.4,21.6c1,1,1.8,2.4,3.6,2.4c0.4,0.3,0.7,0.6,1,1c-0.1,0.9,0.2,1.6,1,2
		c0.3,0.3,0.7,0.7,1,1c0.1,0.4,0.2,0.8,0.3,1.3c0.2-0.1,0.3-0.2,0.5-0.4c-0.3-0.3-0.5-0.6-0.8-0.9c-0.3-0.3-0.7-0.7-1-1
		c0.1-0.9-0.1-1.6-1-2c-0.3-0.3-0.6-0.7-1-1c-0.5-2.7-2.9-3.9-4.4-5.8c-2.8-3.5-6.8-5.8-8.8-9.9l0.3-0.3c2.1,0.4,3.2,2.2,4.7,3.3
		c2.8,2.1,4.3,5.8,8,6.9c0.1,0.8,0.4,1.5,1.2,1.8c0.1,0.1,0.1,0.2,0.2,0.3c0.1,0,0.2,0,0.3,0c-0.2-0.1-0.3-0.2-0.5-0.3
		c0.2-0.9-0.1-1.6-0.9-2.1c-5.3-8.2-12.6-14.2-20.9-19.2c-0.7-0.3-1.3-0.6-2-0.9l-0.1,0c-0.4-0.3-0.8-0.5-1.2-0.8
		c-11-6-21.9-12-32.9-18c-0.3-0.1-0.6-0.1-0.8-0.2c0.3,0,0.6,0.1,0.9,0.1c4.6,8.1,11.3,14.5,18.1,20.9c0.3,1,0.7,2,1,3
		c-4.7-1.2-6.7-5.5-10.1-8.3c-1.5-1.2-2.7-2.8-4.9-5.1c1.3,6.7,5.2,10.5,8.5,14.5c2.2,2.8,4.7,5.5,7.9,7.4c1.3,0.8,2.3,1.9,2.6,3.5
		c0,0-0.3,0.4-0.3,0.4c-0.9-0.1-1.8-0.2-2.7-0.3v0c-0.1-1.9-1.5-2.1-2.9-2.1c-0.3-0.3-0.7-0.6-1.1-0.9c-0.3-2.3-1.9-3-3.9-3.1
		c-2-1.3-3.7-2.9-5.1-4.9c-5.1-8.1-10.4-16.2-14.2-25c-0.3-0.7-0.3-2.1-1.8-1.8c0.5,33.5,19.9,67.9,44.8,75.9
		c-10.2-8-19.2-17-25.3-28.6c8.6,7.7,16.8,15.6,27.2,20.8c0.5,0.8,1.2,1,2,1c0.3,0.3,0.7,0.6,1.1,0.9c0.3,0.3,0.6,0.5,0.9,0.8
		c0.1-0.2,0.2-0.4,0.3-0.5c-0.4-0.1-0.8-0.2-1.2-0.3c-0.3-0.4-0.6-0.7-0.9-1c-0.3-0.8-1.1-1.1-1.9-1.2c-0.1-1.5-1.2-2.4-2.2-3.1
		c-7.6-6-13.9-13.2-20.1-20.5c-1.3-1.5-3.8-2.8-2.6-5.6c0.2,0.1,0.4,0.3,0.7,0.4c0.4,0.3,0.8,0.5,1.2,0.8l0,0c0.2,1,1,1.2,1.9,1.1
		l0,0c0.3,0.9,1,1.2,1.8,1.2l0,0c0.3,1.7,1.6,2,3,2l0,0c0.3,1.8,1.5,2,3,2l0,0c0.2,1.9,1.5,2.1,3,2v0c0.2,1.9,1.5,2.1,3,2v0
		c3.1,4.7,8,6.8,12.7,9.3c6.8,5.7,13.5,11.4,20.3,16.9C89.7,191.1,90.2,190,90.1,188.5z M62.3,191.4c-0.2-0.2-0.4-0.3-0.6-0.5
		C61.9,191.1,62.1,191.3,62.3,191.4c0.2,0.3,0.6,0.6,0.9,0.9c0.1-0.2,0.2-0.4,0.3-0.5C63.2,191.6,62.8,191.5,62.3,191.4z
		 M79.8,187.2c5.2,6.4,10.6,12.6,18.1,16.6C92.9,197,86.9,191.6,79.8,187.2z M93,204.9c-0.7-1.7-1.7-2.2-3.4-1.9
		C90.2,204.8,91.2,205.3,93,204.9z M86.9,200.8c-0.1-0.3-0.2-0.7-0.4-0.8c-0.2-0.1-0.6,0.2-0.8,0.3c0.1,0.3,0.2,0.7,0.4,0.8
		C86.3,201.1,86.6,200.9,86.9,200.8z"/>
	<path class="st2" d="M115.2,158.4c2.6,5.5,4.5,11.2,6.1,17l-0.1,0c-6.2-0.7-8.4-6.3-11.3-10.3c-12.4-16.8-16.2-35.8-12.2-56.4
		c0.4-1.8,0.6-3.6,0.6-5.4l0,0c1.2-1.1,2.2-2.4,1.7-4.1c-0.2-0.7-1.1-0.1-1.6,0.1L98,99.3c0.3-1.8,0.1-3.8,2.1-4.9
		c0.2,0.8,0.3,1.5,0.5,2.4c0.9-0.6,0.6-1.5,0.7-2.2c0.4-0.3,1.3-0.5,0.4-1.3c-0.1,0.4-0.2,0.9-0.4,1.3c-0.4-0.1-0.8-0.2-1.1-0.2
		c-0.3-1.9,0.5-3.6,1.2-5.2c3.3-7.9,6.6-15.7,10-23.6c-3.9,5.4-6.8,11.2-9.5,17.1c-6.7,14.6-12,29.5-10.6,46c0.3,3.5,0.2,7.3,3.3,10
		c2.4,0.4,1.8,2.6,2.1,3.9c2.4,9,5.4,17.6,11,25.1c0.9,1.2,1.6,2.5,1.5,4.1c-12-10-17.7-23.4-19.9-38.4C85.9,110.5,93.2,90,103,70
		c4.6-9.5,10.4-18.5,12.6-29.1c1.4-6.6,1.2-13-2.2-19.4c3.2,0.1,4,2.5,5.2,4.3c4.4,6.6,5.5,14.1,6.4,21.7c1.8,16.3,5.8,32,12.3,47.1
		c0.2,0.6,0.1,1.3,0.2,1.9c-7.1-10.9-10.1-23.2-12.5-35.7c-0.3-2.8-0.6-5.5-1.1-9.4c-1.7,4-2,6.8,0,9.4c0,0.5,0,0.9-0.1,1.4
		c-0.5,1.8-1,3.6,0.5,5.2c0.1,0.6,0.1,1.2,0.2,1.8c-0.2,2.4-0.8,4.9,0.7,7.2c0.1,0.6,0.2,1.2,0.2,1.8c-0.2,3.1-0.5,6.2,0.6,9.3
		c0.1,0.5,0.2,1,0.2,1.5c-1.8,2.6,0.3,5.1-0.1,7.7c-1.6,12-0.8,24.1-0.8,36.1c0,3.1,0.5,6.2,2,9l0-0.1c0.2,1.1-0.5,2.4,0.7,3.5
		c0.1-1.1,0.1-2.1,0.2-3c2.2,3.1,2,6.8,2.5,10.3c0.8,5.3,2.4,10.6,0.6,16.2c-1.8-6.2-3.6-12.4-4.9-18.6c-3.3-15.4-5-31.2-4-47
		c0.5-8.1,0.9-16.2,0.8-24.4c-0.1-4.3-1-8.4-2.6-12.4c0.3,25.4-2.1,50.8-1.6,76.1c-2.6-8.2-1.6-16.6-2.3-25
		c-0.3,7.2-2.5,14.2-0.6,21.5c0.8,3.3,0.9,6.9,1.3,10.3c-2.9-3-3-6.8-3.2-10.6c-0.5-11.4,0.4-22.8,0.8-34.3c-1.9,4-2.6,8.4-2.7,12.6
		c-0.3,12.6-0.7,25.2,2.8,37.5c0.2,0.9,0,2,0,3c-4.1-7.9-5.2-16.4-5.6-25c-0.7-13.6,2.6-26.7,5.3-39.9c1.9-9.3,3.2-18.6,2.9-28.2
		c-2.5,5.5-4.5,11.1-6.7,16.6c-6.9,17.3-12,34.9-10.7,53.8c0.3,4.2,0.9,7.2,3.2,11.1c-3.3-18.8-0.8-36.1,7.6-52.5
		c-1,8.1-2.3,16-3.7,24.1c-1.3,7.9-1.9,15.9-0.8,23.8c1.1,7.9,3,15.7,8.6,23.1C115.2,161.7,115.2,160.1,115.2,158.4z M112.6,60.2
		c-0.1,0.1-0.2,0.3-0.1,0.4c0.1,0.5,0.3,0.5,0.5,0c0.1-0.1,0-0.3-0.1-0.4C112.9,60.2,112.7,60.2,112.6,60.2z M111.7,63.2l0.1-0.2
		l-0.2,0L111.7,63.2z"/>
	<path class="st0" d="M979.6,313.1c-5.1,0-10.2,0-15.3,0c6.6-1.7,4.8-6.9,4.8-11.1c0.1-7.5-0.1-15,0.1-22.5c0.1-3.9,0.3-7.5-6.7-7.4
		c4.5-2.5,7.8-1.6,10.8-1.5c1.9,0,1.2,2.1,1.2,3.2c0.1,4.5,0,9,0,13.4c2.2,0.7,2.8-1.2,4-1.9c3.3-1.8,6.8-2.9,10.4-1.1
		c3.7,1.8,4.4,5.1,4.5,8.8c0,3.7,0.1,7.3,0,11c-0.1,3.9-0.3,7.7,5,8.9c-5.1,0-10.2,0-15.3,0c5.6-1.2,5-5.4,4.9-9.3
		c0-3.5,0.1-7-0.1-10.5c-0.1-3,0-6.3-4.3-6.7c-3.5-0.3-9,3.3-9.1,6.3c-0.2,5,0.2,10,0,15C974.6,311.4,977.7,311,979.6,313.1z"/>
	<path class="st0" d="M617,312.2c-5.2,1.5-12,1.4-17.7-0.2c8.4-0.4,6.8-5.2,6.8-9.3c0.1-7.7,0-15.3,0-23c0-6,0-6-5.4-8.6
		c3.3-1.5,6.4-0.7,9.3-0.8c2.1,0,1.5,1.8,1.5,3c0.1,4.6,0,9.2,0,14.4c2.5-1.4,4.3-2.8,6.4-3.6c6.9-2.8,12,0.5,12.5,7.9
		c0.2,3.6,0.1,7.3,0.1,11c0,6.6,0,6.6,5.7,9.9c-5.9,0.7-10.9,0.5-16.5-0.3c7.1-1.6,5.3-6.9,5.4-11.3c0.1-2.8,0.1-5.7,0-8.5
		c-0.2-3-0.2-6.3-4.4-6.5c-3.6-0.2-8.8,3.5-8.9,6.5c-0.2,4.8,0.1,9.6,0,14.5C611.7,310.9,614.2,311.6,617,312.2z"/>
	<path class="st0" d="M515.9,311.2c1.1,4.7-3.2,10.9,5.2,12.6c-5.3,0-10.6,0-15.9,0c7.7-2,4.7-8.2,4.9-13c0.3-6.1,0.1-12.3,0.1-18.5
		c0-3.7,0.9-8-6.4-6.8c6.5-3.7,11.8-2.4,12.8,2.2c1.2-0.9,2.3-1.9,3.6-2.6c6-3.6,12.6-1.5,15.2,5c2.3,5.9,2.1,11.8-0.9,17.4
		C531.1,313.7,525.7,314.8,515.9,311.2z M516,299.2c0,1.7,0.2,3.4,0,5c-0.8,5.1,2.6,6.3,6.3,7.1c4.2,0.9,6.7-1.4,7.8-5.2
		c1.4-4.9,1.2-9.9-0.2-14.7c-1-3.4-3.3-5.6-7-4.8c-3.5,0.8-6.7,2.2-6.8,6.7C516,295.2,516,297.2,516,299.2z"/>
	<path class="st0" d="M736,271.2c0.8-0.4,1.1-0.6,1.4-0.7c9.7-0.8,9.7-0.8,9.7,8.8c0,2.6,0,5.3,0,7.9c1.8,1,2.1-0.7,3-1.3
		c7.3-5.1,15.2-2.4,17.6,6.2c1.1,3.9,1,7.9-0.2,11.8c-2.4,8-8.7,11.3-16.7,8.7c-1.7-0.6-3.3-2.7-5.3,0.5c-0.9,1.4-4.3,1-4.2-2.8
		c0.2-10.1,0.1-20.3,0.1-30.4C741.3,273.8,741.3,273.8,736,271.2z M747.1,299.3c0,1.7,0.2,3.4,0,5c-0.8,4.8,2.4,6.1,5.9,6.9
		c3.9,1,7-0.3,8.3-4.3c1.8-5.2,1.8-10.5,0-15.6c-1.6-4.8-5.2-5.9-9.9-4C745.5,289.8,747.3,294.9,747.1,299.3z"/>
	<path class="st0" d="M306.6,283.8c-0.1,0.8-0.2,1.1-0.2,1.1c-2.2,0.3-6,0.1-6.4,1.1c-1,2.6-0.5,5.8-0.6,8.8c0,2.7,0,5.3,0,8
		c0,7.2,0,7.2,6.9,10.1c-6.5,0-11.9,0-17.2,0c6.5-1.8,4.9-7,4.9-11.5c0-3.7-0.2-7.3,0.1-11c0.2-3.4-0.2-5.8-5-5.7
		c4.8-0.7,4.8-3.8,5.3-7.1c0.9-6.6,9.5-9.8,14.8-5.7c2.4,1.9,0.9,4.6,1,6.9c0,0.2-1.1,0.5-1.7,0.5c-1.1,0.1-1.3-0.6-1.4-1.5
		c-0.2-1.3-0.1-2.9-0.9-3.8c-1.7-2.2-4.2-2.6-5.8-0.2c-1.7,2.6-1.5,5.9-0.7,8.7c0.5,1.8,3.2,0.5,4.9,0.9
		C305.3,283.6,305.9,283.7,306.6,283.8z"/>
	<path class="st0" d="M1003.9,298.5c0-9.4,5.2-15,14-15c8.8,0,14.2,5.7,14.2,15c0,9.3-5.4,15-14.1,15
		C1009.2,313.4,1003.9,307.9,1003.9,298.5z M1026.4,298.7c-0.1-2.8-0.3-5.6-1.6-8.2c-1.4-2.7-3.3-5-6.8-5c-3.5,0-5.3,2.3-6.8,5
		c-1.3,2.5-1.7,5.3-1.7,8.2c0.1,7.3,3.7,12.7,8.4,12.7C1022.8,311.4,1026.3,306.1,1026.4,298.7z"/>
	<path class="st0" d="M712.2,298.5c0,9.2-5.5,15-14.2,14.9c-8.8,0-14-5.6-14-15.1c0-9.3,5.3-15,14.1-14.9
		C706.8,283.5,712.2,289.2,712.2,298.5z M706.4,298.2c-0.1-2.5-0.3-5-1.4-7.3c-1.5-3-3.3-5.5-7-5.5c-3.7,0-5.7,2.5-6.9,5.5
		c-2.3,5.7-2.3,11.4,0.9,16.7c3.1,5.1,8.8,5.1,12,0C706,304.8,706.4,301.5,706.4,298.2z"/>
	<path class="st0" d="M560,310.7c-3.1,3.6-6.9,3.5-10.7,1.7c-3.4-1.6-4.6-4.6-4.2-8.3c0.5-4.3,3.3-6.4,7-7.5
		c1.7-0.5,3.6-0.6,5.3-1.1c1.6-0.5,4.4,1.6,4.5-1.9c0.1-3,0.2-6.3-3.3-7.6c-2.7-1-5.5-0.6-7,2.1c-0.9,1.6-1.3,3-3.4,2.5
		c-1.5-0.3-0.8-1.5-1-2.4c-0.4-2.1,0.8-3.1,2.6-3.4c2.6-0.5,5.2-1.1,7.9-1.1c6.9-0.1,9.6,2.7,9.7,9.7c0.1,4.5,0,9,0.1,13.5
		c0.1,2.6,0.6,5.1,4.7,5c-2.8,2.5-5.3,2.5-7.3,0.2C563.3,310.2,561.8,310,560,310.7c-0.4-0.7,0.1-1,0.5-1.5c1.6-1.9,2.2-11,0.7-11.5
		c-2.8-0.9-5.6,0-8,1.8c-2.4,1.8-3.1,4.2-2.2,7c0.8,2.5,2.7,3.5,5.2,4C557.6,310.9,558.9,308.6,560,310.7z"/>
	<path class="st0" d="M404.3,323.9c2.4-2.7,4.5-5.5,6.9-7.8c2-2,2-3.7,1-6.2c-2.5-5.5-4.6-11-7-16.5c-1.4-3.4-2.4-7.1-6.5-9
		c4.9-1.3,9.9-1.2,15.2,0.3c-6.7,0.5-5,3.5-3.6,6.6c2,4.7,4,9.5,6.4,15.4c3-6.9,5.8-12.8,8.2-18.9c1.3-3.4-3-1.4-3.8-3.6
		c2.9-1.5,5.9-0.6,8.9-0.6c-7.5,11.4-11.6,24.2-17.2,36.2C411,323.8,408.9,325.5,404.3,323.9z"/>
	<path class="st0" d="M1133.2,313.6c-1.8-0.3-3.9-0.6-6-1.1c-2.9-0.7-4.6-4.8-3.3-7.3c0.4-0.8,1-0.7,1.6-0.7c1,0,1.5,0.6,1.5,1.6
		c0,4.7,3.5,5,6.9,5.4c2.8,0.3,5-1,5.8-3.7c0.9-2.9-0.8-4.8-3.3-5.9c-2.6-1.1-5.2-2.1-7.7-3.4c-3-1.5-5-3.9-4.6-7.6
		c0.4-3.8,2.9-5.7,6.3-6.9c3.7-1.2,7.2-0.4,10.7,0.7c1.8,0.6,3,6,1.6,7.3c-0.4,0.4-1.2,0.5-1.8,0.4c-1.2-0.1-1-1.2-1-1.9
		c-0.1-3.6-2.2-5-5.5-5c-2.6,0-4.5,1.3-5.2,3.9c-0.7,2.6,0.8,4.1,3,5.1c2.3,1,4.6,1.9,6.9,2.9c3.7,1.6,6.8,3.7,6.2,8.5
		c-0.6,4.5-3.8,6.3-7.8,7.2C1136.3,313.3,1134.9,313.4,1133.2,313.6z"/>
	<path class="st0" d="M357.7,313.5c-1.5-0.3-3.8-0.6-6-1.2c-2.3-0.6-3.9-5.5-2.4-7.3c0.3-0.4,1.1-0.5,1.7-0.5c1.1,0,1,0.9,1.3,1.7
		c1.3,4,4.8,6,8.6,5.1c2.2-0.6,3.9-1.9,4.2-4.3c0.3-2.2-0.8-3.9-2.8-4.8c-2.9-1.3-5.8-2.4-8.6-3.9c-3-1.6-4.9-4-4.4-7.7
		c0.5-3.5,2.8-5.4,6-6.5c3.9-1.4,7.6-0.5,11.2,0.7c1.7,0.5,2.7,6.6,1.3,7.4c-1.7,1-2.6,0.2-2.7-1.9c-0.1-4-2.8-5-6.2-4.7
		c-2.3,0.2-4,1.6-4.5,4c-0.5,2.4,0.8,3.8,2.8,4.7c2.2,1.1,4.6,1.9,6.9,2.9c3.7,1.6,7,3.5,6.5,8.3c-0.5,5.1-4.3,6.7-8.5,7.8
		C360.9,313.5,359.7,313.4,357.7,313.5z"/>
	<path class="st0" d="M339.7,310.7c-6.2,3.2-11.8,3.9-17.4,0.9c-6.2-3.4-7.9-9-7.2-15.7c0.6-5.8,3.3-10,9-11.9c7.9-2.6,15,2.8,15,11
		c0,2.1-1,2.4-2.7,2.4c-4.1-0.1-8.3,0.1-12.5-0.1c-2.5-0.1-3,0.8-2.9,3.1c0.5,8.6,5.6,12.5,14.1,10.4
		C336.4,310.7,337.5,309.8,339.7,310.7z M327.2,295.8c1.8-1.8,6.1,2.5,6-3.2c-0.1-4.6-2.2-7.3-5.7-7.2c-3.3,0.1-6.4,3.6-6.2,7.6
		C321.5,297.8,325.4,294.2,327.2,295.8z"/>
	<path class="st0" d="M479.6,310c-6.5,4.8-14.4,4.3-19.4-0.6c-4.7-4.6-5.8-13.4-2.5-19.4c2.7-4.9,8.1-7.5,13.4-6.5
		c4.9,0.9,8.1,5,8.8,10.8c0.3,2.4-0.4,3.3-2.9,3.2c-4.2-0.2-8.3,0.1-12.5-0.1c-2.2-0.1-2.7,0.7-2.6,2.8c0.3,8.6,5.5,12.7,13.9,10.7
		C477.2,310.7,478.4,310.3,479.6,310z M467.9,295.9c1.8-2,6.2,2.4,6.3-3c0.1-3.6-0.7-7.1-5.3-7.4c-3.5-0.2-6.8,3.6-6.6,7.8
		C462.5,297.9,466.2,294,467.9,295.9z"/>
	<path class="st0" d="M880.8,310.4c-4.7,3.9-12.6,4.1-17.8,0.5c-5.4-3.8-7.6-11.4-5.4-18.3c1.9-5.8,6.8-9.4,12.7-9.2
		c6.2,0.2,11.1,5.9,10.7,12c-0.2,2.5-1.8,2-3.1,2c-4.2,0-8.3,0.1-12.5,0c-1.9,0-2.5,0.5-2.5,2.5c0,8.5,5.3,12.9,13.6,11.2
		C877.9,310.8,879.2,309.6,880.8,310.4z M869,295.8c1.8-1.9,6.2,2.5,6.1-3.1c0-3.7-0.9-7.1-5.5-7.3c-3.4-0.1-6.8,4-6.4,8
		C863.6,297.8,867.2,294.1,869,295.8z"/>
	<path class="st0" d="M800.2,310.5c-7.1,4.5-15.4,3.8-20.3-1.4c-4.7-4.9-5.4-14.1-1.6-19.9c2.9-4.5,8.4-6.7,13.4-5.5
		c4.7,1.1,7.7,5,8.3,10.6c0.3,2.4-0.3,3.3-2.8,3.2c-4.1-0.2-8.3,0.1-12.5-0.1c-2.2-0.1-2.7,0.6-2.7,2.8c0.3,8.6,5.5,12.7,13.9,10.8
		C797.1,310.7,798.2,309.8,800.2,310.5z M788.1,295.8c1.8-1.8,6.2,2.5,6-3.1c-0.1-3.7-1-7.1-5.6-7.2c-3.3-0.1-6.4,3.4-6.3,7.5
		C782.3,297.9,786.3,294.2,788.1,295.8z"/>
	<path class="st0" d="M1114.4,310c-6.4,5-15,4.2-19.9-1.2c-4.8-5.3-5-15.2-0.5-20.8c3.3-4,8.7-5.6,13.4-4.1c5,1.6,6.6,5.6,7.4,10.3
		c0.4,2.3-0.1,3.4-2.7,3.3c-4-0.2-8,0.1-11.9-0.1c-2.6-0.1-3.4,0.5-3.2,3.3c0.7,8.5,5.5,12.2,13.8,10.3
		C1111.9,310.7,1113.2,310.4,1114.4,310z M1102.8,295.9c1.8-2,6.2,2.4,6.3-3c0.1-3.6-0.7-7.1-5.3-7.4c-3.5-0.2-6.8,3.6-6.6,7.8
		C1097.3,297.9,1101.1,294,1102.8,295.9z"/>
	<path class="st0" d="M265,312.4c-5.5,1.2-10.6,1.3-16.3,0.2c7.1-0.8,5.5-5.7,5.5-9.7c0.1-7.5,0-15,0-22.5c0-4,0.8-8.1-5.4-8.8
		c3.3-1.6,6.4-1.1,9.3-1c2.4,0.1,1.4,2.3,1.5,3.5c0.1,10.3,0.1,20.7,0,31C259.7,308.6,259.6,312,265,312.4z"/>
	<path class="st0" d="M434.4,312.9c6.1-1.1,4.8-5.7,4.8-9.7c0-7.5,0-15,0-22.5c0-3.9,1.2-8.6-5.9-8.8c0.3-0.5,0.7-1,1-1.4
		c3,0,6-0.2,9,0.1c2.3,0.2,1.3,2.4,1.3,3.6c0.1,10.2,0.1,20.3,0,30.5c-0.1,3.8,0.2,7,4.9,8.2C444.5,312.9,439.4,312.9,434.4,312.9z"
		/>
	<path class="st0" d="M904.2,313c-6.3,0-11.6,0-16.9,0c6.2-1.1,4.8-5.8,4.8-9.7c0-3.5-0.1-7,0-10.5c0.2-4,0.2-7.6-5.8-8
		c6.8-2.9,10.7-1.9,11.7,2.6c1.8,0,2.5-1.9,3.9-2.6c2-1,4.2-2.2,6.1-1.2c2.1,1,0.7,3.5,0.9,5.4c0.1,0.9,0.4,2.1-1.1,2.3
		c-1.1,0.2-1.9-0.1-2.3-1.3c-0.7-2.4-2.5-1.8-4-1.2c-1.9,0.7-4,1.4-4,3.9c-0.1,5.1,0.1,10.3,0.1,15.4
		C897.7,311.9,901.6,310.8,904.2,313z"/>
	<path class="st0" d="M958,310.7c-4.5,3.2-9,3.5-13.7,1.9c-5.4-1.8-8.5-5.8-9.2-11.4c-0.8-6.1,0.2-11.7,5.8-15.5
		c4.9-3.3,10.1-2.8,15.3-0.9c1.5,0.5,2.5,6.2,1.2,7.1c-1.4,0.9-2.9,1-3.1-1.4c-0.2-2.8-1.5-4.8-4.5-5.1c-3.4-0.4-6,1.2-7.4,4.1
		c-2.7,5.7-3,11.6,0.2,17.3c2.3,4.1,6.2,5.1,10.8,4.4C954.7,311,956,309.8,958,310.7z"/>
	<path class="st0" d="M1083,310.7c-4.5,3.2-9,3.5-13.7,2c-5.4-1.8-8.5-5.8-9.2-11.4c-0.8-6.1,0.2-11.7,5.7-15.5
		c4.9-3.3,10.1-2.8,15.3-0.9c1.6,0.5,2.5,6.2,1.2,7.1c-1.4,1-2.9,1-3.1-1.3c-0.3-3.1-1.7-5-4.9-5.2c-3.4-0.1-5.8,1.6-7.1,4.5
		c-2.4,5.4-2.6,11,0.1,16.4c2.3,4.4,6.2,5.6,11,4.9C1079.7,311,1080.9,309.8,1083,310.7z"/>
	<path class="st3" d="M123.8,62.3c0-0.5,0-0.9,0.1-1.4c0.4,0,0.7,0,1.1-0.1c2.4,12.5,5.3,24.8,12.5,35.7l-0.1-0.1
		c-0.2,1.2,0.1,2.1,1.6,2.1c2.6,3.8,4.9,7.8,5.4,12.5c-1.9,3.8-1.8-1.1-2.9-0.6c-0.2-0.2-0.4-0.3-0.7-0.3l0,0.1
		c0.1-0.8-0.1-1.5-0.8-2c0,0,0-0.2-0.1-0.2c0-1.1-0.3-2-1.2-2.7l0,0c-0.3-0.7-0.6-1.3-0.9-2c0,0,0-0.2,0-0.2
		c-0.3-0.6-0.6-1.2-0.9-1.8c0.1-0.2,0-0.4-0.2-0.5c-2-5.4-4.3-10.5-7.9-15c-0.5,4.9,0.5,9.4,2.5,13.7c-0.2,1.2-0.3,2.3,0.8,3.2
		c0.1,0.3,0.2,0.5,0.3,0.8c-0.3,0.9-0.2,1.7,0.5,2.3c0.1,0.3,0.2,0.5,0.3,0.8c-0.1,1.1-0.2,2.3,0.8,3.2c0.1,0.3,0.2,0.5,0.3,0.8
		c-0.2,1.1-0.2,2.3,0.7,3.2c0.1,0.6,0.3,1.1,0.4,1.7c-0.3,1.2-0.3,2.3,0.5,3.3c0.1,0.6,0.2,1.2,0.4,1.8c-0.1,1-0.3,1.9-0.5,3.9
		c-2.1-8-3.9-15-5.8-22c-1.5,0.3-1,2.3-2.5,2.3c-1-5.1,1.1-10.5-1.3-15.5c-0.1-0.5-0.2-1-0.2-1.5c0.7-3.1,0.9-6.2-0.6-9.3
		c-0.1-0.6-0.2-1.2-0.2-1.8c0.1-2.4,0.7-4.9-0.7-7.2c-0.1-0.6-0.1-1.2-0.2-1.8C124.4,65.8,124.9,63.9,123.8,62.3z"/>
	<path class="st0" d="M831.6,284.7c3.5-1.1,6-1.6,5.6-5.5c-0.2-1.5,2.3-1.5,3.7-1.8c1.5-0.3,1.6,1,1.4,1.9c-0.7,4,1.6,4.3,4.6,4
		c1.1-0.1,2.7-0.7,3.5,0.8c-0.2,0.3-0.3,0.8-0.5,0.8c-7.6,1-7.6,1-7.6,9.1c0,3.1,0,6.3,0,9.5c0,6.7,1,7.7,8,7.7
		c-2.8,2.8-5.6,2.2-8.5,1.3c-3.1-1-4.6-3.3-4.7-6.3c-0.2-5-0.1-10-0.2-14.9C836.8,288.4,838.6,284,831.6,284.7z"/>
	<path class="st0" d="M395.5,311.1c-6.3,4.4-12.8,1.8-13.3-4.8c-0.4-5.1-0.3-10.3-0.1-15.4c0.1-3.4,0.2-6.3-5.9-5.6
		c3.2-2.2,7.2-1.9,6.1-6.2c-0.3-1,2.1-1.2,3.3-1.6c0.9-0.2,1.9,0,1.7,1c-1,6.4,3.5,4.6,6.8,4.9c0.5,0,0.9,0.3,1.3,0.5
		c0,2.1-1.5,1.6-2.5,1.5c-4.5-0.7-6.1,1-5.6,5.6c0.4,4.6,0,9.3,0.1,13.9C387.5,310.6,389,311.7,395.5,311.1z"/>
	<path class="st0" d="M577,284.5c3.1-0.9,5.7-1.4,5.2-5.2c-0.2-1.5,2.3-1.5,3.7-1.8c1.5-0.3,1.6,1,1.4,1.9c-0.7,3.9,1.5,4.3,4.6,4.1
		c1.1-0.1,2.7-0.7,3.5,0.8c-0.2,0.3-0.3,0.8-0.4,0.8c-7.6,1-7.6,1-7.6,9.1c0,3.1,0,6.3,0,9.5c0,6.7,1,7.7,8,7.7
		c-2.8,2.8-5.6,2.2-8.4,1.3c-3.1-0.9-4.6-3.3-4.8-6.3c-0.2-5-0.2-10-0.2-14.9C582,288.2,583,284.4,577,284.5z"/>
	<path class="st0" d="M677.5,284.5c-0.2,0.3-0.3,0.5-0.4,0.5c-2.4,1.2-6-1.1-7.3,1.3c-1.2,2.2-0.4,5.5-0.4,8.3c0,3.1,0,6.3,0,9.5
		c0.1,6.4,1.3,7.5,7.8,7.2c-2.5,3-5.3,2.3-8.1,1.5c-3.3-1-4.8-3.5-4.9-6.7c-0.2-5-0.2-10-0.1-14.9c0.1-3.4,0.4-6.6-5-6.5
		c2.6-1.3,5.7-1.3,5.1-5.2c-0.2-1.6,2.2-1.5,3.6-1.9c1-0.3,1.7,0.3,1.5,1.3c-1,5.5,2.7,4.8,6,4.7C676,283.4,677,283.2,677.5,284.5z"
		/>
	<path class="st0" d="M825.4,311.1c-6.2,4.4-12.8,1.8-13.3-4.8c-0.4-5.3-0.3-10.6-0.1-15.9c0.2-3.4-0.3-5.8-5.8-5.1
		c3-2.2,7.1-1.8,6-6.2c-0.3-1,2.1-1.2,3.3-1.6c0.9-0.2,1.9,0,1.7,1c-1.1,6.4,3.5,4.6,6.8,4.9c0.5,0,0.9,0.3,1.3,0.5
		c0,2.1-1.5,1.6-2.4,1.5c-5.2-1-6,1.6-5.7,6.1c0.4,4.5,0,9,0.1,13.4C817.5,310.5,818.9,311.7,825.4,311.1z"/>
	<path class="st0" d="M269.4,283.4c2.7,0,5.5,0.1,8.2,0c2.4-0.1,2.1,1.6,2.1,3c0,5.7,0.1,11.3,0,17c-0.1,4.1-0.3,8,5.2,9.1
		c-5.4,1.4-10.4,0.6-16,0.3c7.1-1.5,5.3-6.7,5.3-11c0-3.2-0.2-6.4,0.1-9.5c0.3-4,0-7.3-5.6-7.5C268.9,284.4,269.2,283.9,269.4,283.4
		z"/>
	<path class="st0" d="M1053.9,312.4c-5.6,1.1-10.6,1.3-16.3,0.1c6.8-0.6,5.5-5.3,5.6-9.2c0-3.3,0-6.7,0-10c-0.1-3.8,1.5-8.5-5.8-8.6
		c3.7-1.7,6.8-1.2,9.8-1.2c2.1,0,1.4,1.9,1.4,3.1c0.1,6,0.1,12,0,18C1048.5,308.2,1048,312,1053.9,312.4z"/>
	<path class="st4" d="M141.4,110.4c1.1-0.5,1,4.5,2.9,0.6c2.8,3.8,3.4,8.1,3.8,12.6c-1.8,5.4-1,11-1.8,16.5
		c-1.1,7.3-2.1,14.6-5.9,22.6c0-2.3,0-3.3,0-4.3c0.1-0.2,0.1-0.4,0.1-0.6c1-1,0.9-2.2,0.8-3.4c3.6-13.6,5.8-27.3,0.2-41
		C141.5,112.4,141.4,111.4,141.4,110.4z"/>
	<path class="st2" d="M140.4,158.4c0,1,0,2,0,4.3c3.8-8,4.8-15.3,5.9-22.6c0.8-5.5,0-11.1,1.8-16.5c1.8,19.8-2.5,38.2-12.6,55.3
		C136.2,171.9,137.5,165,140.4,158.4z"/>
	<path class="st0" d="M1172.9,8.5c-6.5-2.6-7.2,0.4-6.7,4.9c0.3,2.5,0.1,5,0,7.5c0,1.7-0.1,3.4,2.5,4c-2.3,1.2-4.3,0.5-7.7,0.7
		c2.8-1.3,3.1-2.8,3-4.6c-0.1-2.6-0.1-5.3,0-8c0.1-3.8,0.4-7.6-5.3-4.7c-0.7,0.4-1.3,0.1-1.6-0.6c-0.3-0.8,0.2-1.3,1-1.3
		c4.6,0,9.2,0,13.8,0C1172.3,7.1,1172.6,7.8,1172.9,8.5z"/>
	<path class="st0" d="M1177,13.6c-0.4-2.2,1.3-5.1-2.5-6.7c2.4-0.2,4.2-1.2,5.5,1.3c2.2,4.3,2.9,9.4,6.8,12.9
		c0.3,0.3-1.2,2.4-2.2,4.5c-1.9-4.7-3.5-8.6-5.1-12.5c-0.2-0.4-0.1-2-1.4-1c-0.3,0.2-0.1,0.9-0.2,1.4
		C1177.7,13.7,1177.4,13.7,1177,13.6z"/>
	<path class="st1" d="M241.8,114.3c-2.7,1.4-1.8,4.7-3.6,6.6c-1.1,1.3-1.5,3.3-3.8,4c-0.1-1.3-0.2-2.4-0.2-3.5
		c4.3-5.6,4.2-12.1,4.7-18.8C239.9,106.5,240.9,110.4,241.8,114.3z"/>
	<path class="st0" d="M1191.1,9.6c0.2-3.4,2.4-3.4,4.9-2.8c-2.7,2.9-2.5,15,0.3,18.4c-1.8,0.8-3.6,0.3-5.3,0.3c2-4.6,0.7-9.3,1-14
		C1192.2,10.6,1192.2,9.8,1191.1,9.6z"/>
	<path class="st4" d="M1177,13.6c0.3,0.1,0.6,0.1,1,0c0.9,3.8-1.6,8.2,1.6,11.7c-1.6,0.8-3.3,0.4-5.7,0.2
		C1177.3,21.9,1175.2,17.3,1177,13.6z"/>
	<path class="st0" d="M1045.8,278.4c-2.2,0.4-2.7-0.5-2.8-2.4c-0.1-2.4,1.1-2.6,3-2.6c1.9,0,2.6,0.5,2.6,2.5
		C1048.6,278.2,1047.7,278.9,1045.8,278.4z"/>
	<path class="st0" d="M279.6,275.9c0.3,1.9-0.4,2.7-2.4,2.6c-1.8-0.1-3.2,0-3.1-2.5c0.1-1.8,0.4-2.7,2.5-2.6
		C278.3,273.5,280.1,273.3,279.6,275.9z"/>
	<path class="st4" d="M1191.1,9.6c1.1,0.2,1.2,1,0.9,1.9c-2.5,1.7-2,5.4-4.8,7.1C1187.9,15.3,1188.6,12.1,1191.1,9.6z"/>
	<path class="st2" d="M138.8,98.5c-1.4,0-1.8-0.9-1.6-2.1C138.5,96.6,138.3,97.8,138.8,98.5z"/>
	<path class="st2" d="M99.1,209.6c1-0.2,1.8,0,2.1,1.1C100.5,210.4,99.8,210,99.1,209.6z"/>
	<path class="st2" d="M111.2,173.4c1,0,1.7,0.2,1.8,1.4C112.2,174.6,111.5,174.3,111.2,173.4z"/>
	<path class="st2" d="M143.6,236.4c0.1,0.2,0.3,0.5,0.4,0.7c0,0-0.2,0.2-0.3,0.3C143.7,237.1,143.6,236.8,143.6,236.4z"/>
	<path class="st2" d="M114.1,175.6c0.4,0.3,0.8,0.7,1.2,1C114.8,176.3,114.4,176,114.1,175.6z"/>
	<path class="st2" d="M112.9,174.8c0.7-0.1,1.1,0.2,1.2,0.9C113.7,175.4,113.3,175.1,112.9,174.8z"/>
	<path class="st5" d="M777.5,80.4c0-16.6,0.1-33.3-0.1-50c0-3.6,1-4.9,4.6-5.2c18.2-1.7,35.6-0.4,50.5,11.9
		c12.8,10.6,17.9,24.8,19.5,40.7c0.7,7,0.2,14-1.3,20.9c-4.5,20.5-18.4,30.7-37.9,34.8c-10.7,2.2-21.5,2-32.3,2.1
		c-3.6,0-3-2.1-3-4.2C777.5,114.3,777.5,97.4,777.5,80.4z"/>
	<path class="st5" d="M331.5,37.7c13.3,38.5,26.1,75.9,39.1,113.6c-25.4,0-50.3,0-75.7,0C307,113.6,319,76.2,331.5,37.7z"/>
	<path class="st4" d="M233.2,164.4c-11.8,17.7-26.7,32.6-41.8,47.3c-1.3,1.3-2.4,3.1-5,2.9c10.6-11.1,20.8-22.5,30.5-34.4
		c0.4,0.6,0.8,1.3,1.3,0.1l-0.1,0.1c1.3-0.6,1.8-1.7,2-3.1l0,0c1.8-0.5,2.4-2.1,3.4-3.5c5-6.9,9.6-14,13.5-21.6
		c-0.2,6-0.8,11.9-2.1,17.7c-0.4,1.5-1.6,3.1,0.4,4.4c-2.4,6.9-4.8,13.7-10.9,18.5c-2.5,1.9-2.4,5.8-4.5,8.1
		c-11.8,12.5-24.1,24.4-39.8,32c-1.6,0.8-3.4,1.4-5.1,2c-0.6,0.2-1.2,0.2-3.2,0.4c11.3-6.5,21.7-12,29.5-21l0,0
		c3.4-1.3,5.5-3.9,7.1-7c0.9-1,1.8-2,2.8-3C221.7,193,230.3,180.2,233.2,164.4c0.3-0.2,0.6-0.6,0.8-0.9c-0.2-0.1-0.3-0.2-0.5-0.4
		C233.4,163.6,233.3,164,233.2,164.4z"/>
	<path class="st4" d="M115.2,158.4c0,1.6,0,3.3,0,6.1c-5.6-7.4-7.5-15.2-8.6-23.1c-1.1-7.9-0.5-15.9,0.8-23.8c1.3-8,2.7-16,3.7-24.1
		c-8.4,16.4-10.9,33.6-7.6,52.5c-2.3-3.9-2.9-6.9-3.2-11.1C99,116,104,98.4,111,81.2c2.2-5.5,4.1-11.1,6.7-16.6
		c0.3,9.6-1,18.9-2.9,28.2c-2.6,13.2-6,26.3-5.3,39.9c0.5,8.6,1.6,17.2,5.6,25C115.1,158,115.1,158.2,115.2,158.4z"/>
	<path class="st2" d="M134.2,110.5c-0.1-0.3-0.2-0.5-0.3-0.8c0.3-1.2,0.5-2.4-0.8-3.2c-0.1-0.3-0.2-0.5-0.3-0.8
		c0.4-0.9,0.3-1.7-0.5-2.3c-0.1-0.3-0.2-0.5-0.3-0.8c0.5-0.8,1-1.6,1.6-2.5c0.5,0.5,1,0.9,1.6,1.4l0,0c-0.2,3.6,1.4,6.8,2.6,10
		c3.8,10.4,4.3,20.9,2.6,31.8c-1.4,8.8-2.9,17.6-5.1,26.2c-0.4,1.4-0.5,2.9-2.3,4.6c2.2-18.9-4.6-36.3-3.7-55
		c-1.8,1.8,0.1,4.9-2.7,5.4c-0.4-5.7-0.9-11.3,2.8-17.7c4.9,17.6,5.5,34.4,6.5,51.2c2.6-12.5,4.1-25.1,0.4-37.7
		c-0.1-0.6-0.2-1.2-0.4-1.8c0.4-1.2,0.6-2.3-0.5-3.3c-0.1-0.6-0.3-1.1-0.4-1.7C135.3,112.5,135.5,111.3,134.2,110.5z"/>
	<path class="st4" d="M136.3,120.4c3.6,12.6,2.2,25.1-0.4,37.7c-1-16.8-1.6-33.6-6.5-51.2c-3.7,6.4-3.2,12-2.8,17.7
		c0,0.9,0,1.9,0,2.8c0,0.4,0,0.8,0,1.2c0.2,1.6,0.4,3.2,0.6,4.9c0.1,2.4,0.3,4.7,0.4,7.1c-0.1,0.5-0.2,1-0.3,1.5c-1.5-2.8-2-5.9-2-9
		c0.1-12-0.7-24.1,0.8-36.1c0.3-2.6-1.7-5.2,0.1-7.7c2.4,5,0.2,10.3,1.3,15.5c1.5,0,1-2,2.5-2.3c1.8,7,3.7,14.1,5.8,22
		C136,122.4,136.1,121.4,136.3,120.4z"/>
	<path class="st4" d="M94.6,138.5c-3.1-2.7-2.9-6.5-3.3-10c-1.5-16.5,3.8-31.4,10.6-46c2.7-5.9,5.6-11.7,9.5-17.1
		c-3.3,7.9-6.6,15.7-10,23.6c-0.7,1.7-1.5,3.3-1.2,5.2l-0.1,0.1c-1.9,1.1-1.8,3.1-2.1,4.9c-1,1.2-0.9,2.6-0.9,4l0,0.1
		c-1.4,1.1-1.6,2.8-1.9,4.4c-2.2,9.5-3.1,19.1-0.6,28.7C94.6,137.2,94.6,137.8,94.6,138.5z"/>
	<path class="st4" d="M156.2,192.4c-0.3,0-0.7,0-1,0l0,0c1.9-6.8,6.2-12.3,10.3-17.8c6.9-9.3,14.3-18.2,24.3-24.4
		c0.1,0.7,0.2,1.5,0.3,2.2c-2.5,4.3-6.9,6.8-10.1,10.5c-3.3,3.8-7.5,6.9-10,11.4c-4.9,3.6-7.2,9.3-10.9,13.9
		c-0.3,0.4-0.6,0.8-0.9,1.2l0,0c-0.8,0.4-1.1,1.1-1.1,1.9l0,0C156.8,191.7,156.5,192.1,156.2,192.4L156.2,192.4z"/>
	<path class="st4" d="M117.4,149.5c-0.4-3.4-0.4-7-1.3-10.3c-1.8-7.3,0.3-14.4,0.6-21.5c0.7,8.4-0.3,16.9,2.3,25
		c0.4,7.6,3.6,14.6,5.5,23.2c-3.9-4.2-5.9-7.9-6.2-12.3c0.1-1.2,0.1-2.5-0.9-3.4C117.5,149.9,117.5,149.7,117.4,149.5z"/>
	<path class="st4" d="M90.1,188.5c0.1,1.5-0.3,2.6-1.9,1.3c-6.8-5.6-13.5-11.3-20.3-16.9c0.2-0.2,0.3-0.4,0.4-0.5
		c2.4,0.4,1.2-1.2,1.2-2.1c0.9,0.1,1.8,0.2,2.7,0.4c0.7,0.6,1.3,1.2,1.9,1.8c5,5.1,10,10.1,15,15.2
		C89.5,187.9,89.8,188.2,90.1,188.5z"/>
	<path class="st2" d="M131.3,99.4c-2-4.3-3-8.8-2.5-13.7c3.6,4.5,6,9.7,7.9,15c-0.5,0.2-1,0.5-1.5,0.7l0,0c-0.1-1-0.4-1.8-1.6-2
		C132.9,99.5,132.1,99.4,131.3,99.4z"/>
	<path class="st2" d="M94.6,136.5c-2.4-9.6-1.6-19.2,0.6-28.7c0.4-1.6,0.6-3.2,1.9-4.4c0.1,4.6-1.6,9-2,13.6
		c-0.4,5.3-1,10.4,0.1,15.7C95.5,134,95.6,135.4,94.6,136.5z"/>
	<path class="st4" d="M67.9,172.9c-4.7-2.5-9.7-4.6-12.7-9.3c2.7,0,4.2,2.3,6.4,3.5c2.5,1.3,2.4,0,1.9-1.8c0.9,0.1,1.9,0.2,2.8,0.3
		c0.3,0.3,0.7,0.6,1,0.8c0,0.8,0.1,1.7,0.1,2.5c-0.7,0.5-1.2,1,0,1.5l-0.1-0.1c0.3,0.7,0.7,1.3,1.1,2
		C68.2,172.5,68.1,172.7,67.9,172.9z"/>
	<path class="st2" d="M89.2,187.6c-5-5.1-10-10.1-15-15.2c5.6,0.5,7.5,5.8,11.2,8.8C87.3,182.8,89.8,184.4,89.2,187.6z"/>
	<path class="st4" d="M61.2,161.6c0.3,0.3,0.7,0.5,1,0.8c0.1,0.6,0.1,1.3,0.1,2c-5.2-2.5-10-5.8-13.9-10.1c0.9,0,1.9,0.1,2.8,0.2
		l0,0c0.8,1.6,2.1,2.2,3.8,2.2c0,0,0,0,0,0c0.2,1.2,0.9,1.8,2.1,1.8c0,0,0,0,0,0C58.1,160.1,59.4,161.2,61.2,161.6z"/>
	<path class="st2" d="M208.4,207.5c-1.6,3.1-3.8,5.7-7.1,7C202.4,210.9,204.7,208.5,208.4,207.5z"/>
	<path class="st2" d="M67.3,168.9c0-0.8-0.1-1.7-0.1-2.5c2.8,0,4.7,1.1,5,4.2c-0.9-0.1-1.8-0.2-2.7-0.4c-0.8-0.1-1.6-1-2.3,0.1
		l0.1,0.1C67.9,169.9,67.9,169.4,67.3,168.9z"/>
	<path class="st2" d="M62.4,164.4c-0.1-0.6-0.1-1.3-0.1-2c2.2,0,4,0.5,4,3.2c-0.9-0.1-1.9-0.2-2.8-0.3
		C63.1,165,62.7,164.7,62.4,164.4z"/>
	<path class="st2" d="M51.3,154.5c-0.9,0-1.9-0.1-2.8-0.2l0,0c0.1-1.2-0.8-1.8-1.3-2.6c0,0,0.3-0.4,0.3-0.4
		C49.4,151.5,51.2,151.9,51.3,154.5z"/>
	<path class="st2" d="M61.2,161.6c-1.8-0.4-3.1-1.5-4-3.1C59.2,158.8,61,159.1,61.2,161.6z"/>
	<path class="st2" d="M127.6,140.5c-0.1-2.4-0.3-4.7-0.4-7.1C129,135.7,128.5,138.1,127.6,140.5z"/>
	<path class="st2" d="M55.1,156.7c-1.7,0-3.1-0.6-3.8-2.2C53,154.4,54.6,154.5,55.1,156.7z"/>
	<path class="st2" d="M57.2,158.5c-1.2-0.1-1.9-0.6-2.1-1.8C56.6,156.4,57.2,157.1,57.2,158.5z"/>
	<path class="st2" d="M97.1,103.3c0-1.4-0.1-2.8,0.9-4c0,0,0.4,0.3,0.4,0.3c0,1.3-0.1,2.6-0.1,3.9l0,0
		C97.9,103.4,97.5,103.3,97.1,103.3z"/>
	<path class="st4" d="M128.2,142.5c-0.1,0.9-0.1,1.9-0.2,3c-1.2-1.2-0.5-2.4-0.7-3.5C127.6,142.1,127.9,142.3,128.2,142.5z"/>
	<path class="st2" d="M138.6,105.2c0.9,0.7,1.2,1.6,1.2,2.7C137.5,107.9,138.4,106.4,138.6,105.2z"/>
	<path class="st2" d="M141.3,154.4c0.1,1.2,0.2,2.4-0.8,3.4C140.3,156.6,140,155.3,141.3,154.4z"/>
	<path class="st2" d="M141.4,110.4c0,1,0.1,2,0.1,3.1c-1.6-0.8-1.3-2.1-0.8-3.4C141,110,141.2,110.1,141.4,110.4z"/>
	<path class="st2" d="M117.5,150.1c1,0.9,1,2.1,0.9,3.4C117,152.7,117.3,151.4,117.5,150.1z"/>
	<path class="st2" d="M136.9,101.2c0.3,0.6,0.6,1.2,0.9,1.8C136.2,103,136.4,102.2,136.9,101.2z"/>
	<path class="st2" d="M137.8,103.2c0.3,0.7,0.6,1.3,0.9,2C137.2,105,137.3,104.2,137.8,103.2z"/>
	<path class="st2" d="M139.9,108.2c0.7,0.5,0.9,1.1,0.8,2C139.2,110,139.3,109.2,139.9,108.2z"/>
	<path class="st2" d="M157.1,191.4c0-0.9,0.3-1.6,1.1-1.9C158.3,190.3,158.1,191.1,157.1,191.4z"/>
	<path class="st2" d="M121.3,175.5c0.2,0.4,0.5,0.7,0.7,1.1c0,0-0.2,0.2-0.4,0.2C121.5,176.4,121.4,175.9,121.3,175.5
		C121.2,175.5,121.3,175.5,121.3,175.5z"/>
	<path class="st2" d="M126.6,128.6c0-0.4,0-0.8,0-1.2c0.1,0.3,0.2,0.5,0.3,0.8C126.9,128.3,126.7,128.4,126.6,128.6z"/>
	<path class="st2" d="M158.3,189.5c0.3-0.4,0.6-0.8,0.9-1.2C158.9,188.7,158.6,189.1,158.3,189.5z"/>
	<path class="st2" d="M156.2,192.5c0.3-0.4,0.6-0.7,1-1.1C156.9,191.7,156.5,192.1,156.2,192.5z"/>
	<path class="st2" d="M71.2,160.6c-0.3-0.3-0.7-0.7-1-1c0,0,0.3-0.3,0.2-0.3c0.3,0.1,0.6,0.1,0.9,0.2l-0.1-0.1
		c0.1,0.3,0.1,0.6,0.2,0.9C71.4,160.3,71.2,160.6,71.2,160.6z"/>
	<path class="st2" d="M72.2,161.6c-0.3-0.3-0.7-0.7-1-1l0.2-0.2c0.3,0.1,0.6,0.1,0.9,0.2l-0.1-0.1c0.1,0.3,0.1,0.6,0.2,0.9
		C72.4,161.3,72.2,161.6,72.2,161.6z"/>
	<path class="st2" d="M106.3,208.5c0.1,0.1,0.3,0.3,0.4,0.4c-0.1,0-0.2,0-0.3-0.1C106.3,208.7,106.3,208.6,106.3,208.5L106.3,208.5z
		"/>
	<path class="st3" d="M190.2,152.5c-0.1-0.7-0.2-1.5-0.3-2.2l0.1-0.1c1.6,0.2,2.6-0.4,2.9-2c0.4-0.3,0.8-0.6,1.2-0.9
		c1.6,0.2,2.6-0.4,2.9-2l0.1,0c1.3,0.3,2-0.4,2.3-1.6v0c1.4,0,2.7-0.3,3-2c0,0,0,0,0,0c0.9,0,1.6-0.2,1.9-1.1l0,0
		c0.9,0,1.6-0.1,1.9-1.1c6.7-4.1,14.4-5.5,22.8-8.8c-10,29.2-25.6,52.5-50.8,68.8c-0.7-0.1-2.1,0.1-1.1-1.2c1.5-2,3.2-3.9,4.9-5.7
		c9.4-9.9,16.2-21.4,21.7-33.8c0.3-0.3,0.7-0.6,0.1-1c-0.1,0-0.4,0.3-0.6,0.5c-4.6,3.5-9,7.2-13.7,10.4c-2.2,1.5-3.8,4.4-7.1,3.8
		c0-1.5,1.1-2.3,1.9-3.4c5.5-7.1,10.9-14.2,16.4-21.3c0.4-0.3,1.4-0.3,1-1c-0.4-0.6-1,0-1.4,0.5c-2.1,0.7-4.3,1.4-5.9,3.1
		C192.9,151.1,191.6,151.8,190.2,152.5z"/>
	<path class="st3" d="M235.3,174.6c-2-1.3-0.8-2.9-0.4-4.4c1.3-5.8,1.9-11.7,2.1-17.7c-3.9,7.6-8.5,14.7-13.5,21.6
		c-1,1.3-1.6,3-3.4,3.5c-0.8-1.3,0.3-2.2,0.9-3.1c9.5-14.4,15.9-29.9,18.6-47c0.1-0.4,0.4-0.8,1-2.2
		C244.1,142.9,241.6,158.9,235.3,174.6z"/>
	<path class="st4" d="M182.2,172.5c3.3,0.6,4.9-2.3,7.1-3.8c4.7-3.2,9.2-6.9,13.7-10.4c0.2,0.2,0.3,0.4,0.5,0.5
		c-5.5,12.4-12.3,23.9-21.7,33.7c-1.7,1.8-3.4,3.6-4.9,5.7c-0.9,1.3,0.5,1.1,1.1,1.2c-2,2.2-4.6,3.6-7.5,5.3
		c-0.6-2.7,1.1-3.9,2.2-5.3c6.4-7.8,11.7-16.5,17.3-24.9c0.7-1.1,0.9-2.5,1.4-3.7c0.3-0.3,0.7-0.5,0.2-0.9c-0.1,0-0.4,0.3-0.6,0.5
		c-3.7,1.8-6.3,5.5-10.5,6.5c-0.2-0.2-0.4-0.4-0.6-0.6c0.5-0.9,1.6-1.5,1.2-2.8l0,0C182,173.5,182.3,173.2,182.2,172.5L182.2,172.5z
		"/>
	<path class="st4" d="M200.5,147.8c-5.4,7.1-10.9,14.2-16.4,21.3c-0.8,1-1.9,1.9-1.9,3.4l0,0c-0.4,0.4-0.7,0.7-1,1l0,0
		c-0.8,0.7-2.8,1-1.2,2.8c0.2,0.2,0.4,0.4,0.6,0.6c-2.2,2.8-5.5,3.8-8.6,5.4c3.3-7.4,8.7-13.1,13.3-19.5c3-4.1,7.5-7,8.9-12.3
		c1.6-1.7,3.7-2.5,5.9-3.1C200.3,147.5,200.4,147.7,200.5,147.8z"/>
	<path class="st4" d="M192.9,148.2c-0.3,1.6-1.3,2.2-2.9,2C190.4,148.6,191.6,148.3,192.9,148.2z"/>
	<path class="st4" d="M197,145.3c-0.4,1.6-1.4,2.2-2.9,2C194.4,145.6,195.6,145.3,197,145.3z"/>
	<path class="st4" d="M202.4,141.6c-0.4,1.6-1.6,2-3,2C199.8,142,200.8,141.5,202.4,141.6z"/>
	<path class="st3" d="M220.2,177.4c-0.2,1.3-0.7,2.5-2,3.1C217.5,178.6,218.2,177.5,220.2,177.4z"/>
	<path class="st4" d="M199.4,143.6c-0.2,1.3-0.9,1.9-2.3,1.6C197.3,143.9,198.1,143.4,199.4,143.6z"/>
	<path class="st1" d="M234,127.5c-0.1,0.1-0.2,0.2-0.3,0.4c-0.1-0.1-0.2-0.3-0.2-0.4c0-0.1,0.2-0.2,0.3-0.4
		C233.9,127.2,233.9,127.4,234,127.5z"/>
	<path class="st1" d="M233,130.7c-0.1,0-0.2,0.1-0.4,0.1c0-0.1-0.1-0.3-0.1-0.4c0,0,0.2-0.1,0.4-0.1
		C232.9,130.4,232.9,130.5,233,130.7z"/>
	<path class="st4" d="M204.3,140.5c-0.3,0.9-1,1.1-1.9,1.1C202.6,140.5,203.4,140.4,204.3,140.5z"/>
	<path class="st4" d="M206.2,139.4c-0.3,1-1,1.2-1.9,1.1C204.6,139.6,205.3,139.4,206.2,139.4z"/>
	<path class="st4" d="M182.3,218.5c0.3-0.3,0.6-0.6,0.9-0.8c0.1,0.2,0.2,0.4,0.3,0.5C183.1,218.3,182.7,218.4,182.3,218.5
		C182.2,218.4,182.3,218.5,182.3,218.5z"/>
	<path class="st4" d="M155.2,192.4c-0.1,0.1-0.1,0.3-0.2,0.4c-0.1,0.1-0.2,0-0.3,0.1C154.9,192.8,155.1,192.6,155.2,192.4
		C155.3,192.5,155.2,192.4,155.2,192.4z"/>
	<path class="st4" d="M167.3,206.5c0.1-0.1,0.1-0.3,0.2-0.4c0.1-0.1,0.2,0,0.3,0C167.6,206.2,167.4,206.3,167.3,206.5
		C167.2,206.4,167.3,206.5,167.3,206.5z"/>
	<path class="st3" d="M218.2,180.4c-0.5,1.2-0.9,0.5-1.3-0.1C217.4,179.9,217.8,179.9,218.2,180.4z"/>
	<path class="st4" d="M182.2,218.4c-0.1,0.2-0.3,0.4-0.4,0.5c0-0.1,0-0.3,0.1-0.3C182,218.6,182.1,218.5,182.2,218.4
		C182.3,218.5,182.2,218.4,182.2,218.4z"/>
	<path class="st4" d="M167.2,206.4c-0.1,0.2-0.3,0.3-0.4,0.5c0-0.1,0-0.2,0.1-0.3C167,206.6,167.1,206.5,167.2,206.4
		C167.3,206.5,167.2,206.4,167.2,206.4z"/>
	<path class="st4" d="M37.6,152.1c-1.2,2.8,1.3,4,2.6,5.6c6.2,7.3,12.6,14.5,20.1,20.5c1,0.8,2.1,1.6,2.2,3.1l-0.3,0.4
		c-10.4-5.2-18.7-13.1-27.2-20.8c6.1,11.6,15.2,20.6,25.3,28.6c-25-7.9-44.4-42.3-44.8-75.9c1.5-0.3,1.5,1,1.8,1.8
		c3.8,8.9,9.1,16.9,14.2,25c-1.9,0.3-2.4-1.2-3.4-2.3c-4-4.3-6.5-9.6-9.8-14.4c1.4,11.8,5,22.8,10.6,33.7c1.2-3.7-1.7-6.1-1.1-9.1
		c1.8,0.1,2.2,3.5,3.2,2.5C34.3,146.9,35.5,150.8,37.6,152.1z"/>
	<path class="st3" d="M37.6,152.1c-2-1.3-3.3-5.2-6.7-1.3c-0.9,1-1.4-2.3-3.2-2.5c-0.6,3,2.4,5.4,1.1,9.1
		c-5.6-10.9-9.2-21.9-10.6-33.7c3.3,4.8,5.8,10.1,9.8,14.4c1,1.1,1.5,2.6,3.4,2.3c1.4,2,3.1,3.6,5.1,4.9c0.6,1.9,1.8,3,3.9,3.1
		c0.3,0.3,0.7,0.6,1.1,0.9c0.3,1.6,1.3,2.2,2.9,2.1v0c0.7,1.8,2,3,4,2.9l0,0c4,4.3,8.7,7.5,13.9,10.1c0.3,0.3,0.7,0.6,1,0.9
		c0.5,1.8,0.6,3.1-1.9,1.8c-2.1-1.1-3.7-3.4-6.4-3.5v0c-0.4-1.5-1.4-2.2-3-2v0c-0.4-1.5-1.4-2.2-3-2c0,0,0,0,0,0
		c-0.4-1.5-1.4-2.2-3-2c0,0,0,0,0,0c-0.4-1.5-1.4-2.2-3-2l0,0c-0.2-1.1-0.9-1.2-1.8-1.2l0,0c-0.3-0.9-1-1.1-1.9-1.1l0,0
		c-0.4-0.3-0.8-0.5-1.2-0.8C38,152.4,37.8,152.2,37.6,152.1z"/>
	<path class="st3" d="M42.5,136.3c-6.7-6.4-13.4-12.7-18-20.9l-0.1,0c11,6,21.9,12,32.9,18.1c0.4,0.3,0.8,0.5,1.2,0.8l0.1,0
		c-0.1,0.4-0.1,0.8-0.2,1.2c-1,0.3-2,0.7-3.1,1c-4.5-2.8-8.9-6-14.7-6.4c0.5,2.8,2.5,3.8,4,5.2C44.2,136.4,43.3,136.3,42.5,136.3z"
		/>
	<path class="st4" d="M55.2,136.5c1-0.3,2-0.7,3.1-1l0,0c0.1,0.8,0.6,1.3,1.4,1.4c0.1,0,0.2-0.7,0.4-1.1c0.2-0.1,0.3-0.3,0.4-0.5
		c8.3,4.9,15.6,11,20.9,19.2l-0.3,0.2c-3.7-1.1-5.2-4.8-8-6.9c-1.5-1.2-2.7-2.9-4.7-3.3c-0.2-0.3-0.4-0.8-0.8-0.2
		c0,0,0.3,0.4,0.5,0.5c2,4.2,6.1,6.5,8.8,9.9c1.5,1.9,3.9,3.2,4.4,5.8l-0.1,0.1c-1.7,0-2.6-1.4-3.6-2.4
		C70.4,150.7,63,143.4,55.2,136.5z M65.2,142.5c-0.1-0.2-0.3-0.3-0.4-0.5c0,0.1,0,0.2,0.1,0.3C65,142.4,65.2,142.4,65.2,142.5
		c0.1,0.1,0.1,0.2,0.2,0.4c0.1,0.1,0.2,0,0.3,0.1C65.6,142.8,65.4,142.6,65.2,142.5z"/>
	<path class="st4" d="M42.5,136.3c0.9,0,1.7,0.1,2.1-1c7.7,4.8,14.4,10.7,20.5,17.4c-7.7-3.8-13.7-10-21.5-13.4l0,0
		C43.1,138.3,42.8,137.3,42.5,136.3z"/>
	<path class="st1" d="M79.8,187.2c7.1,4.4,13.2,9.9,18.1,16.6C90.3,199.8,84.9,193.6,79.8,187.2z"/>
	<path class="st4" d="M48.4,154.3c-2.1,0-3.3-1.1-4-2.9c0.9,0.1,1.8,0.2,2.7,0.3C47.7,152.5,48.6,153.2,48.4,154.3z"/>
	<path class="st1" d="M93,204.9c-1.8,0.4-2.8-0.1-3.4-1.9C91.3,202.7,92.4,203.1,93,204.9z"/>
	<path class="st4" d="M40.4,148.4c-2.1-0.1-3.3-1.2-3.9-3.1C38.5,145.4,40.1,146.1,40.4,148.4z"/>
	<path class="st4" d="M49.2,159.6c1.6-0.2,2.6,0.4,3,2C50.7,161.7,49.4,161.5,49.2,159.6z"/>
	<path class="st4" d="M52.2,161.6c1.6-0.2,2.6,0.5,3,2C53.7,163.7,52.3,163.5,52.2,161.6z"/>
	<path class="st4" d="M44.4,151.4c-1.6,0.1-2.6-0.5-2.9-2.1C42.9,149.3,44.2,149.5,44.4,151.4z"/>
	<path class="st4" d="M46.2,157.6c1.6-0.2,2.6,0.4,3,2C47.7,159.7,46.4,159.4,46.2,157.6z"/>
	<path class="st4" d="M43.1,155.7c1.6-0.2,2.6,0.4,3,2C44.7,157.6,43.4,157.4,43.1,155.7z"/>
	<path class="st1" d="M86.9,200.8c-0.3,0.1-0.6,0.4-0.8,0.3c-0.2-0.1-0.2-0.5-0.4-0.8c0.3-0.1,0.6-0.4,0.8-0.3
		C86.8,200,86.8,200.5,86.9,200.8z"/>
	<path class="st4" d="M95.2,194.5c-0.2,0.5,0.3,1.4-0.8,1.4c-0.2,0-0.6-0.4-0.6-0.6C93.8,194.2,94.7,194.7,95.2,194.5
		C95.2,194.5,95.2,194.5,95.2,194.5z"/>
	<path class="st4" d="M84.2,164.5c0.3,0.3,0.5,0.6,0.8,0.9c-0.2,0.1-0.3,0.2-0.5,0.4C84.5,165.3,84.4,164.9,84.2,164.5
		C84.3,164.5,84.2,164.5,84.2,164.5z"/>
	<path class="st3" d="M24.4,115.4c-0.3,0-0.6-0.1-0.9-0.1C23.8,115.3,24.1,115.4,24.4,115.4C24.3,115.4,24.4,115.4,24.4,115.4z"/>
	<path class="st4" d="M82.3,161.5c0.8,0.4,1.1,1.1,1,2l0,0C82.4,163.1,82.1,162.4,82.3,161.5L82.3,161.5z"/>
	<path class="st4" d="M65.3,183.5c0.4,0.1,0.8,0.2,1.2,0.3c-0.1,0.2-0.2,0.4-0.3,0.5C65.9,184,65.6,183.7,65.3,183.5
		C65.3,183.5,65.3,183.5,65.3,183.5z"/>
	<path class="st4" d="M62.3,191.4c0.4,0.1,0.8,0.2,1.3,0.3c-0.1,0.2-0.2,0.4-0.3,0.5C62.9,192,62.6,191.8,62.3,191.4L62.3,191.4z"/>
	<path class="st4" d="M58.3,135.5c0.1-0.4,0.1-0.8,0.2-1.2c0.7,0.3,1.3,0.6,2,0.9c-0.2,0.1-0.3,0.3-0.4,0.5
		C59.4,135.6,58.8,135.5,58.3,135.5C58.2,135.5,58.3,135.5,58.3,135.5z"/>
	<path class="st4" d="M81.4,154.4c0.8,0.5,1.1,1.2,0.9,2.1l0.1,0c-0.9-0.3-1.1-1-1.2-1.8C81.1,154.6,81.4,154.4,81.4,154.4z"/>
	<path class="st4" d="M71.3,159.5c-0.3-0.1-0.6-0.1-0.9-0.2c0.1-0.4,0.2-0.8,0.3-1.1C71.4,158.4,71.3,159,71.3,159.5z"/>
	<path class="st4" d="M62.5,181.2c0.8,0.1,1.5,0.3,1.9,1.2l-0.1,0.1c-0.8,0-1.6-0.2-2-1L62.5,181.2z"/>
	<path class="st4" d="M41.3,154.5c0.9,0,1.7,0.1,1.8,1.2C42.2,155.7,41.6,155.4,41.3,154.5z"/>
	<path class="st4" d="M39.4,153.3c0.8,0,1.6,0.2,1.9,1.1C40.4,154.5,39.7,154.3,39.4,153.3z"/>
	<path class="st4" d="M58.4,134.3c-0.4-0.3-0.8-0.5-1.2-0.8C57.6,133.8,58,134,58.4,134.3z"/>
	<path class="st4" d="M62.2,191.5c-0.2-0.2-0.3-0.4-0.5-0.6C61.9,191.1,62.1,191.3,62.2,191.5C62.3,191.4,62.2,191.5,62.2,191.5z"/>
	<path class="st4" d="M38.2,152.5c0.4,0.3,0.8,0.5,1.2,0.8C39,153,38.6,152.8,38.2,152.5z"/>
	<path class="st4" d="M82.3,161.5c-0.4-0.3-0.7-0.6-1-1c0,0,0.1-0.1,0.1-0.1C81.6,160.8,81.9,161.1,82.3,161.5L82.3,161.5z"/>
	<path class="st4" d="M72.4,161.3c-0.1-0.3-0.1-0.6-0.2-0.9c0.2,0.2,0.4,0.4,0.6,0.6C72.7,161.1,72.5,161.2,72.4,161.3z"/>
	<path class="st4" d="M64.3,182.4c0.3,0.4,0.6,0.7,0.9,1l0,0c-0.3-0.3-0.7-0.6-1.1-0.9C64.2,182.5,64.3,182.4,64.3,182.4z"/>
	<path class="st4" d="M72.3,160.5c-0.3-0.1-0.6-0.1-0.9-0.2c-0.1-0.3-0.1-0.6-0.2-0.9C71.6,159.8,72,160.2,72.3,160.5z"/>
	<path class="st4" d="M83.2,163.5c0.3,0.3,0.7,0.7,1,1l0,0C83.9,164.1,83.6,163.8,83.2,163.5C83.3,163.5,83.2,163.5,83.2,163.5z"/>
	<path class="st4" d="M82.2,156.5c0.2,0.1,0.3,0.2,0.5,0.3c-0.1,0-0.2,0-0.3,0C82.4,156.7,82.4,156.6,82.2,156.5
		C82.3,156.4,82.2,156.5,82.2,156.5z"/>
	<path class="st4" d="M124.9,60.8c-0.4,0-0.7,0-1.1,0.1c-2-2.7-1.8-5.4,0-9.4C124.2,55.3,124.6,58.1,124.9,60.8z"/>
	<path class="st4" d="M125.4,78.4c1.4,3,1.3,6.1,0.6,9.3C124.9,84.6,125.2,81.5,125.4,78.4z"/>
	<path class="st1" d="M98.3,103.5c0-1.3,0.1-2.6,0.1-3.9c0.5-0.2,1.4-0.8,1.6-0.1C100.5,101.1,99.4,102.4,98.3,103.5z"/>
	<path class="st4" d="M124.5,69.4c1.4,2.3,0.8,4.8,0.7,7.2C123.7,74.3,124.2,71.8,124.5,69.4z"/>
	<path class="st4" d="M123.8,62.3c1.1,1.6,0.6,3.5,0.5,5.2C122.8,65.9,123.2,64.1,123.8,62.3z"/>
	<path class="st1" d="M100.1,94.3c0.4,0.1,0.8,0.2,1.1,0.2l0,0c-0.1,0.7,0.2,1.6-0.7,2.2C100.4,95.9,100.2,95.1,100.1,94.3
		C100.1,94.3,100.1,94.3,100.1,94.3z"/>
	<path class="st1" d="M101.3,94.5c0.1-0.4,0.2-0.9,0.4-1.3C102.6,93.9,101.7,94.1,101.3,94.5L101.3,94.5z"/>
	<path class="st4" d="M112.6,60.2c0.1,0,0.3,0,0.3,0c0.1,0.1,0.1,0.3,0.1,0.4c-0.2,0.5-0.4,0.5-0.5,0
		C112.5,60.5,112.6,60.4,112.6,60.2z"/>
	<polygon class="st4" points="111.7,63.2 111.7,62.9 111.9,63 	"/>
	<path class="st5" d="M516,299.2c0-2,0-4,0-6c0.1-4.4,3.3-5.9,6.8-6.7c3.7-0.8,6,1.4,7,4.8c1.4,4.9,1.6,9.9,0.2,14.7
		c-1.1,3.8-3.6,6.1-7.8,5.2c-3.7-0.8-7.2-2.1-6.3-7.1C516.2,302.6,516,300.9,516,299.2z"/>
	<path class="st5" d="M747.1,299.3c0.3-4.4-1.5-9.5,4.4-11.9c4.7-2,8.3-0.8,9.9,4c1.7,5.1,1.7,10.5,0,15.6c-1.4,3.9-4.5,5.2-8.3,4.3
		c-3.5-0.9-6.7-2.1-5.9-6.9C747.3,302.7,747.1,301,747.1,299.3z"/>
	<path class="st5" d="M1026.4,298.7c-0.1,7.4-3.6,12.7-8.4,12.7c-4.8,0-8.3-5.4-8.4-12.7c0-2.8,0.3-5.6,1.7-8.2c1.4-2.7,3.3-5,6.8-5
		c3.4,0,5.3,2.3,6.8,5C1026.1,293,1026.3,295.9,1026.4,298.7z"/>
	<path class="st5" d="M706.4,298.2c0,3.4-0.5,6.6-2.3,9.5c-3.3,5-8.9,5.1-12,0c-3.2-5.3-3.2-11-0.9-16.7c1.2-3,3.3-5.5,6.9-5.5
		c3.7,0,5.5,2.5,7,5.5C706.2,293.2,706.3,295.7,706.4,298.2z"/>
	<path class="st5" d="M560,310.7c-1.1-2-2.5,0.2-3.8-0.1c-2.5-0.6-4.4-1.5-5.2-4c-0.9-2.8-0.2-5.3,2.2-7c2.4-1.7,5.1-2.6,8-1.8
		c1.5,0.5,0.9,9.6-0.7,11.5c-0.5,0.5-1,0.8-0.6,1.5C560,310.8,560,310.7,560,310.7z"/>
	<path class="st5" d="M327.2,295.8c-1.8-1.6-5.8,2-5.9-2.7c-0.1-4.1,3-7.5,6.2-7.6c3.5-0.1,5.6,2.6,5.7,7.2
		C333.4,298.2,329,294,327.2,295.8z"/>
	<path class="st5" d="M467.9,295.9c-1.6-1.8-5.4,2-5.7-2.6c-0.2-4.1,3.1-8,6.6-7.8c4.6,0.3,5.4,3.8,5.3,7.4
		C474,298.3,469.7,293.8,467.9,295.9z"/>
	<path class="st5" d="M869,295.8c-1.7-1.8-5.3,2-5.8-2.4c-0.4-4,3-8.1,6.4-8c4.6,0.2,5.5,3.6,5.5,7.3
		C875.2,298.3,870.8,293.9,869,295.8z"/>
	<path class="st5" d="M788.1,295.8c-1.8-1.6-5.8,2.1-5.9-2.8c-0.1-4.1,3-7.6,6.3-7.5c4.6,0.1,5.5,3.5,5.6,7.2
		C794.3,298.3,789.8,294,788.1,295.8z"/>
	<path class="st5" d="M1102.8,295.9c-1.6-1.8-5.4,2-5.6-2.6c-0.2-4.2,3.1-8,6.6-7.8c4.6,0.3,5.4,3.8,5.3,7.4
		C1108.9,298.3,1104.6,293.8,1102.8,295.9z"/>
	<path class="st4" d="M131.3,99.4c0.8,0,1.6,0.1,2.4,0.1c0,0.2,0,0.4,0,0.6c-0.5,0.8-1,1.6-1.6,2.5
		C131,101.7,131.2,100.6,131.3,99.4z"/>
	<path class="st4" d="M133.2,106.5c1.3,0.8,1.1,2,0.8,3.2C133.1,108.8,133.1,107.6,133.2,106.5z"/>
	<path class="st4" d="M134.2,110.5c1.3,0.8,1.1,2,0.7,3.2C134.1,112.7,134.1,111.6,134.2,110.5z"/>
	<path class="st4" d="M135.4,115.4c1.1,1,0.9,2.1,0.5,3.3C135.1,117.7,135.1,116.6,135.4,115.4z"/>
	<path class="st4" d="M132.4,103.4c0.8,0.6,0.9,1.4,0.5,2.3C132.2,105,132.1,104.2,132.4,103.4z"/>
	<path class="st2" d="M233.2,164.4c0.1-0.4,0.2-0.8,0.3-1.2c0.2,0.1,0.3,0.2,0.5,0.4C233.8,163.9,233.5,164.2,233.2,164.4
		C233.3,164.5,233.2,164.4,233.2,164.4z"/>
	<path class="st1" d="M133.7,100.1c-0.1-0.2-0.1-0.4,0-0.6c1.1,0.1,1.5,1,1.6,2C134.8,101,134.2,100.6,133.7,100.1z"/>
	<path class="st3" d="M67.3,170.4c0.7-1.1,1.5-0.2,2.3-0.1c0,0.9,1.2,2.5-1.2,2.1C68,171.7,67.7,171,67.3,170.4z"/>
	<path class="st3" d="M67.3,168.9c0.5,0.5,0.5,1,0,1.5C66.1,170,66.6,169.5,67.3,168.9z"/>
	<path class="st4" d="M200.1,147.3c0.4-0.5,1.1-1,1.4-0.5c0.4,0.7-0.6,0.7-1,1C200.4,147.7,200.3,147.5,200.1,147.3z"/>
	<path class="st4" d="M203,158.2c0.2-0.2,0.6-0.5,0.6-0.5c0.6,0.4,0.2,0.7-0.1,1C203.4,158.6,203.2,158.4,203,158.2z"/>
	<path class="st3" d="M180.1,176.2c-1.6-1.8,0.4-2,1.2-2.8C181.6,174.7,180.6,175.3,180.1,176.2z"/>
	<path class="st3" d="M181.2,173.5c0.4-0.4,0.7-0.7,1-1C182.3,173.2,181.9,173.5,181.2,173.5z"/>
	<path class="st2" d="M191.1,170.3c0.2-0.2,0.5-0.5,0.6-0.5c0.6,0.4,0.1,0.6-0.2,0.9C191.4,170.6,191.2,170.5,191.1,170.3z"/>
	<path class="st3" d="M58.2,135.5c0.6,0.1,1.2,0.2,1.8,0.2c-0.1,0.4-0.3,1.1-0.4,1.1C58.9,136.8,58.4,136.3,58.2,135.5z"/>
	<path class="st2" d="M68.1,144.7c-0.2-0.2-0.6-0.5-0.5-0.5c0.4-0.6,0.6-0.1,0.8,0.2C68.4,144.4,68.1,144.7,68.1,144.7z"/>
	<path class="st2" d="M65.2,142.5c0.2,0.1,0.4,0.3,0.6,0.4c-0.1,0-0.3,0-0.3-0.1C65.4,142.7,65.4,142.6,65.2,142.5
		C65.3,142.5,65.2,142.5,65.2,142.5z"/>
	<path class="st2" d="M65.3,142.5c-0.1,0-0.3-0.1-0.4-0.2c-0.1,0-0.1-0.2-0.1-0.3C65,142.2,65.1,142.3,65.3,142.5
		C65.2,142.5,65.3,142.5,65.3,142.5z"/>
</g>
</svg>
